<?xml version="1.0" encoding="utf-8" standalone="no"?>
<!DOCTYPE svg PUBLIC "-//W3C//DTD SVG 1.1//EN"
  "http://www.w3.org/Graphics/SVG/1.1/DTD/svg11.dtd">
<svg xmlns:xlink="http://www.w3.org/1999/xlink" width="554.280938pt" height="566.352125pt" viewBox="0 0 554.280938 566.352125" xmlns="http://www.w3.org/2000/svg" version="1.1">
 <metadata>
  <rdf:RDF xmlns:dc="http://purl.org/dc/elements/1.1/" xmlns:cc="http://creativecommons.org/ns#" xmlns:rdf="http://www.w3.org/1999/02/22-rdf-syntax-ns#">
   <cc:Work>
    <dc:type rdf:resource="http://purl.org/dc/dcmitype/StillImage"/>
    <dc:date>2026-06-22T23:17:03.430476</dc:date>
    <dc:format>image/svg+xml</dc:format>
    <dc:creator>
     <cc:Agent>
      <dc:title>Matplotlib v3.10.9, https://matplotlib.org/</dc:title>
     </cc:Agent>
    </dc:creator>
   </cc:Work>
  </rdf:RDF>
 </metadata>
 <defs>
  <style type="text/css">*{stroke-linejoin: round; stroke-linecap: butt}</style>
 </defs>
 <g id="figure_1">
  <g id="patch_1">
   <path d="M 0 566.352125 
L 554.280938 566.352125 
L 554.280938 0 
L 0 0 
z
" style="fill: #ffffff"/>
  </g>
  <g id="axes_1">
   <g id="patch_2">
    <path d="M 52.160938 528.795875 
L 547.080938 528.795875 
L 547.080938 33.875875 
L 52.160938 33.875875 
z
" style="fill: #ffffff"/>
   </g>
   <g id="FillBetweenPolyCollection_1">
    <defs>
     <path id="m00f4411e6d" d="M 52.160938 -57.512702 
L 52.160938 -17.599798 
L 54.647973 -20.086834 
L 57.135008 -22.573869 
L 59.622043 -25.060904 
L 62.109078 -27.547939 
L 64.596113 -30.034974 
L 67.083149 -32.522009 
L 69.570184 -35.009045 
L 72.057219 -37.49608 
L 74.544254 -39.983115 
L 77.031289 -42.47015 
L 79.518324 -44.957185 
L 82.00536 -47.44422 
L 84.492395 -49.931256 
L 86.97943 -52.418291 
L 89.466465 -54.905326 
L 91.9535 -57.392361 
L 94.440535 -59.879396 
L 96.927571 -62.366432 
L 99.414606 -64.853467 
L 101.901641 -67.340502 
L 104.388676 -69.827537 
L 106.875711 -72.314572 
L 109.362747 -74.801607 
L 111.849782 -77.288643 
L 114.336817 -79.775678 
L 116.823852 -82.262713 
L 119.310887 -84.749748 
L 121.797922 -87.236783 
L 124.284958 -89.723818 
L 126.771993 -92.210854 
L 129.259028 -94.697889 
L 131.746063 -97.184924 
L 134.233098 -99.671959 
L 136.720133 -102.158994 
L 139.207169 -104.64603 
L 141.694204 -107.133065 
L 144.181239 -109.6201 
L 146.668274 -112.107135 
L 149.155309 -114.59417 
L 151.642345 -117.081205 
L 154.12938 -119.568241 
L 156.616415 -122.055276 
L 159.10345 -124.542311 
L 161.590485 -127.029346 
L 164.07752 -129.516381 
L 166.564556 -132.003416 
L 169.051591 -134.490452 
L 171.538626 -136.977487 
L 174.025661 -139.464522 
L 176.512696 -141.951557 
L 178.999731 -144.438592 
L 181.486767 -146.925628 
L 183.973802 -149.412663 
L 186.460837 -151.899698 
L 188.947872 -154.386733 
L 191.434907 -156.873768 
L 193.921943 -159.360803 
L 196.408978 -161.847839 
L 198.896013 -164.334874 
L 201.383048 -166.821909 
L 203.870083 -169.308944 
L 206.357118 -171.795979 
L 208.844154 -174.283014 
L 211.331189 -176.77005 
L 213.818224 -179.257085 
L 216.305259 -181.74412 
L 218.792294 -184.231155 
L 221.279329 -186.71819 
L 223.766365 -189.205226 
L 226.2534 -191.692261 
L 228.740435 -194.179296 
L 231.22747 -196.666331 
L 233.714505 -199.153366 
L 236.201541 -201.640401 
L 238.688576 -204.127437 
L 241.175611 -206.614472 
L 243.662646 -209.101507 
L 246.149681 -211.588542 
L 248.636716 -214.075577 
L 251.123752 -216.562612 
L 253.610787 -219.049648 
L 256.097822 -221.536683 
L 258.584857 -224.023718 
L 261.071892 -226.510753 
L 263.558927 -228.997788 
L 266.045963 -231.484824 
L 268.532998 -233.971859 
L 271.020033 -236.458894 
L 273.507068 -238.945929 
L 275.994103 -241.432964 
L 278.481139 -243.919999 
L 280.968174 -246.407035 
L 283.455209 -248.89407 
L 285.942244 -251.381105 
L 288.429279 -253.86814 
L 290.916314 -256.355175 
L 293.40335 -258.84221 
L 295.890385 -261.329246 
L 298.37742 -263.816281 
L 300.864455 -266.303316 
L 303.35149 -268.790351 
L 305.838525 -271.277386 
L 308.325561 -273.764422 
L 310.812596 -276.251457 
L 313.299631 -278.738492 
L 315.786666 -281.225527 
L 318.273701 -283.712562 
L 320.760736 -286.199597 
L 323.247772 -288.686633 
L 325.734807 -291.173668 
L 328.221842 -293.660703 
L 330.708877 -296.147738 
L 333.195912 -298.634773 
L 335.682948 -301.121808 
L 338.169983 -303.608844 
L 340.657018 -306.095879 
L 343.144053 -308.582914 
L 345.631088 -311.069949 
L 348.118123 -313.556984 
L 350.605159 -316.044019 
L 353.092194 -318.531055 
L 355.579229 -321.01809 
L 358.066264 -323.505125 
L 360.553299 -325.99216 
L 363.040334 -328.479195 
L 365.52737 -330.966231 
L 368.014405 -333.453266 
L 370.50144 -335.940301 
L 372.988475 -338.427336 
L 375.47551 -340.914371 
L 377.962546 -343.401406 
L 380.449581 -345.888442 
L 382.936616 -348.375477 
L 385.423651 -350.862512 
L 387.910686 -353.349547 
L 390.397721 -355.836582 
L 392.884757 -358.323617 
L 395.371792 -360.810653 
L 397.858827 -363.297688 
L 400.345862 -365.784723 
L 402.832897 -368.271758 
L 405.319932 -370.758793 
L 407.806968 -373.245829 
L 410.294003 -375.732864 
L 412.781038 -378.219899 
L 415.268073 -380.706934 
L 417.755108 -383.193969 
L 420.242144 -385.681004 
L 422.729179 -388.16804 
L 425.216214 -390.655075 
L 427.703249 -393.14211 
L 430.190284 -395.629145 
L 432.677319 -398.11618 
L 435.164355 -400.603215 
L 437.65139 -403.090251 
L 440.138425 -405.577286 
L 442.62546 -408.064321 
L 445.112495 -410.551356 
L 447.59953 -413.038391 
L 450.086566 -415.525427 
L 452.573601 -418.012462 
L 455.060636 -420.499497 
L 457.547671 -422.986532 
L 460.034706 -425.473567 
L 462.521742 -427.960602 
L 465.008777 -430.447638 
L 467.495812 -432.934673 
L 469.982847 -435.421708 
L 472.469882 -437.908743 
L 474.956917 -440.395778 
L 477.443953 -442.882813 
L 479.930988 -445.369849 
L 482.418023 -447.856884 
L 484.905058 -450.343919 
L 487.392093 -452.830954 
L 489.879128 -455.317989 
L 492.366164 -457.805025 
L 494.853199 -460.29206 
L 497.340234 -462.779095 
L 499.827269 -465.26613 
L 502.314304 -467.753165 
L 504.80134 -470.2402 
L 507.288375 -472.727236 
L 509.77541 -475.214271 
L 512.262445 -477.701306 
L 514.74948 -480.188341 
L 517.236515 -482.675376 
L 519.723551 -485.162411 
L 522.210586 -487.649447 
L 524.697621 -490.136482 
L 527.184656 -492.623517 
L 529.671691 -495.110552 
L 532.158726 -497.597587 
L 534.645762 -500.084623 
L 537.132797 -502.571658 
L 539.619832 -505.058693 
L 542.106867 -507.545728 
L 544.593902 -510.032763 
L 547.080938 -512.519798 
L 547.080938 -552.432702 
L 547.080938 -552.432702 
L 544.593902 -549.945666 
L 542.106867 -547.458631 
L 539.619832 -544.971596 
L 537.132797 -542.484561 
L 534.645762 -539.997526 
L 532.158726 -537.510491 
L 529.671691 -535.023455 
L 527.184656 -532.53642 
L 524.697621 -530.049385 
L 522.210586 -527.56235 
L 519.723551 -525.075315 
L 517.236515 -522.58828 
L 514.74948 -520.101244 
L 512.262445 -517.614209 
L 509.77541 -515.127174 
L 507.288375 -512.640139 
L 504.80134 -510.153104 
L 502.314304 -507.666068 
L 499.827269 -505.179033 
L 497.340234 -502.691998 
L 494.853199 -500.204963 
L 492.366164 -497.717928 
L 489.879128 -495.230893 
L 487.392093 -492.743857 
L 484.905058 -490.256822 
L 482.418023 -487.769787 
L 479.930988 -485.282752 
L 477.443953 -482.795717 
L 474.956917 -480.308682 
L 472.469882 -477.821646 
L 469.982847 -475.334611 
L 467.495812 -472.847576 
L 465.008777 -470.360541 
L 462.521742 -467.873506 
L 460.034706 -465.38647 
L 457.547671 -462.899435 
L 455.060636 -460.4124 
L 452.573601 -457.925365 
L 450.086566 -455.43833 
L 447.59953 -452.951295 
L 445.112495 -450.464259 
L 442.62546 -447.977224 
L 440.138425 -445.490189 
L 437.65139 -443.003154 
L 435.164355 -440.516119 
L 432.677319 -438.029084 
L 430.190284 -435.542048 
L 427.703249 -433.055013 
L 425.216214 -430.567978 
L 422.729179 -428.080943 
L 420.242144 -425.593908 
L 417.755108 -423.106872 
L 415.268073 -420.619837 
L 412.781038 -418.132802 
L 410.294003 -415.645767 
L 407.806968 -413.158732 
L 405.319932 -410.671697 
L 402.832897 -408.184661 
L 400.345862 -405.697626 
L 397.858827 -403.210591 
L 395.371792 -400.723556 
L 392.884757 -398.236521 
L 390.397721 -395.749486 
L 387.910686 -393.26245 
L 385.423651 -390.775415 
L 382.936616 -388.28838 
L 380.449581 -385.801345 
L 377.962546 -383.31431 
L 375.47551 -380.827274 
L 372.988475 -378.340239 
L 370.50144 -375.853204 
L 368.014405 -373.366169 
L 365.52737 -370.879134 
L 363.040334 -368.392099 
L 360.553299 -365.905063 
L 358.066264 -363.418028 
L 355.579229 -360.930993 
L 353.092194 -358.443958 
L 350.605159 -355.956923 
L 348.118123 -353.469888 
L 345.631088 -350.982852 
L 343.144053 -348.495817 
L 340.657018 -346.008782 
L 338.169983 -343.521747 
L 335.682948 -341.034712 
L 333.195912 -338.547676 
L 330.708877 -336.060641 
L 328.221842 -333.573606 
L 325.734807 -331.086571 
L 323.247772 -328.599536 
L 320.760736 -326.112501 
L 318.273701 -323.625465 
L 315.786666 -321.13843 
L 313.299631 -318.651395 
L 310.812596 -316.16436 
L 308.325561 -313.677325 
L 305.838525 -311.19029 
L 303.35149 -308.703254 
L 300.864455 -306.216219 
L 298.37742 -303.729184 
L 295.890385 -301.242149 
L 293.40335 -298.755114 
L 290.916314 -296.268078 
L 288.429279 -293.781043 
L 285.942244 -291.294008 
L 283.455209 -288.806973 
L 280.968174 -286.319938 
L 278.481139 -283.832903 
L 275.994103 -281.345867 
L 273.507068 -278.858832 
L 271.020033 -276.371797 
L 268.532998 -273.884762 
L 266.045963 -271.397727 
L 263.558927 -268.910692 
L 261.071892 -266.423656 
L 258.584857 -263.936621 
L 256.097822 -261.449586 
L 253.610787 -258.962551 
L 251.123752 -256.475516 
L 248.636716 -253.988481 
L 246.149681 -251.501445 
L 243.662646 -249.01441 
L 241.175611 -246.527375 
L 238.688576 -244.04034 
L 236.201541 -241.553305 
L 233.714505 -239.066269 
L 231.22747 -236.579234 
L 228.740435 -234.092199 
L 226.2534 -231.605164 
L 223.766365 -229.118129 
L 221.279329 -226.631094 
L 218.792294 -224.144058 
L 216.305259 -221.657023 
L 213.818224 -219.169988 
L 211.331189 -216.682953 
L 208.844154 -214.195918 
L 206.357118 -211.708883 
L 203.870083 -209.221847 
L 201.383048 -206.734812 
L 198.896013 -204.247777 
L 196.408978 -201.760742 
L 193.921943 -199.273707 
L 191.434907 -196.786671 
L 188.947872 -194.299636 
L 186.460837 -191.812601 
L 183.973802 -189.325566 
L 181.486767 -186.838531 
L 178.999731 -184.351496 
L 176.512696 -181.86446 
L 174.025661 -179.377425 
L 171.538626 -176.89039 
L 169.051591 -174.403355 
L 166.564556 -171.91632 
L 164.07752 -169.429285 
L 161.590485 -166.942249 
L 159.10345 -164.455214 
L 156.616415 -161.968179 
L 154.12938 -159.481144 
L 151.642345 -156.994109 
L 149.155309 -154.507073 
L 146.668274 -152.020038 
L 144.181239 -149.533003 
L 141.694204 -147.045968 
L 139.207169 -144.558933 
L 136.720133 -142.071898 
L 134.233098 -139.584862 
L 131.746063 -137.097827 
L 129.259028 -134.610792 
L 126.771993 -132.123757 
L 124.284958 -129.636722 
L 121.797922 -127.149687 
L 119.310887 -124.662651 
L 116.823852 -122.175616 
L 114.336817 -119.688581 
L 111.849782 -117.201546 
L 109.362747 -114.714511 
L 106.875711 -112.227475 
L 104.388676 -109.74044 
L 101.901641 -107.253405 
L 99.414606 -104.76637 
L 96.927571 -102.279335 
L 94.440535 -99.7923 
L 91.9535 -97.305264 
L 89.466465 -94.818229 
L 86.97943 -92.331194 
L 84.492395 -89.844159 
L 82.00536 -87.357124 
L 79.518324 -84.870089 
L 77.031289 -82.383053 
L 74.544254 -79.896018 
L 72.057219 -77.408983 
L 69.570184 -74.921948 
L 67.083149 -72.434913 
L 64.596113 -69.947877 
L 62.109078 -67.460842 
L 59.622043 -64.973807 
L 57.135008 -62.486772 
L 54.647973 -59.999737 
L 52.160938 -57.512702 
z
" style="stroke: #999999; stroke-opacity: 0.08"/>
    </defs>
    <g clip-path="url(#p386e2273d7)">
     <use xlink:href="#m00f4411e6d" x="0" y="566.352125" style="fill: #999999; fill-opacity: 0.08; stroke: #999999; stroke-opacity: 0.08"/>
    </g>
   </g>
   <g id="matplotlib.axis_1">
    <g id="xtick_1">
     <g id="line2d_1">
      <path d="M 60.143518 528.795875 
L 60.143518 33.875875 
" clip-path="url(#p386e2273d7)" style="fill: none; stroke: #b0b0b0; stroke-opacity: 0.18; stroke-width: 0.8; stroke-linecap: square"/>
     </g>
     <g id="line2d_2">
      <defs>
       <path id="m5e6785853e" d="M 0 0 
L 0 3.5 
" style="stroke: #000000; stroke-width: 0.8"/>
      </defs>
      <g>
       <use xlink:href="#m5e6785853e" x="60.143518" y="528.795875" style="stroke: #000000; stroke-width: 0.8"/>
      </g>
     </g>
     <g id="text_1">
      <!-- −0.6 -->
      <g transform="translate(48.002112 543.394312) scale(0.1 -0.1)">
       <defs>
        <path id="DejaVuSans-2212" d="M 678 2272 
L 4684 2272 
L 4684 1741 
L 678 1741 
L 678 2272 
z
" transform="scale(0.015625)"/>
        <path id="DejaVuSans-30" d="M 2034 4250 
Q 1547 4250 1301 3770 
Q 1056 3291 1056 2328 
Q 1056 1369 1301 889 
Q 1547 409 2034 409 
Q 2525 409 2770 889 
Q 3016 1369 3016 2328 
Q 3016 3291 2770 3770 
Q 2525 4250 2034 4250 
z
M 2034 4750 
Q 2819 4750 3233 4129 
Q 3647 3509 3647 2328 
Q 3647 1150 3233 529 
Q 2819 -91 2034 -91 
Q 1250 -91 836 529 
Q 422 1150 422 2328 
Q 422 3509 836 4129 
Q 1250 4750 2034 4750 
z
" transform="scale(0.015625)"/>
        <path id="DejaVuSans-2e" d="M 684 794 
L 1344 794 
L 1344 0 
L 684 0 
L 684 794 
z
" transform="scale(0.015625)"/>
        <path id="DejaVuSans-36" d="M 2113 2584 
Q 1688 2584 1439 2293 
Q 1191 2003 1191 1497 
Q 1191 994 1439 701 
Q 1688 409 2113 409 
Q 2538 409 2786 701 
Q 3034 994 3034 1497 
Q 3034 2003 2786 2293 
Q 2538 2584 2113 2584 
z
M 3366 4563 
L 3366 3988 
Q 3128 4100 2886 4159 
Q 2644 4219 2406 4219 
Q 1781 4219 1451 3797 
Q 1122 3375 1075 2522 
Q 1259 2794 1537 2939 
Q 1816 3084 2150 3084 
Q 2853 3084 3261 2657 
Q 3669 2231 3669 1497 
Q 3669 778 3244 343 
Q 2819 -91 2113 -91 
Q 1303 -91 875 529 
Q 447 1150 447 2328 
Q 447 3434 972 4092 
Q 1497 4750 2381 4750 
Q 2619 4750 2861 4703 
Q 3103 4656 3366 4563 
z
" transform="scale(0.015625)"/>
       </defs>
       <use xlink:href="#DejaVuSans-2212"/>
       <use xlink:href="#DejaVuSans-30" transform="translate(83.789062 0)"/>
       <use xlink:href="#DejaVuSans-2e" transform="translate(147.412109 0)"/>
       <use xlink:href="#DejaVuSans-36" transform="translate(179.199219 0)"/>
      </g>
     </g>
    </g>
    <g id="xtick_2">
     <g id="line2d_3">
      <path d="M 139.969325 528.795875 
L 139.969325 33.875875 
" clip-path="url(#p386e2273d7)" style="fill: none; stroke: #b0b0b0; stroke-opacity: 0.18; stroke-width: 0.8; stroke-linecap: square"/>
     </g>
     <g id="line2d_4">
      <g>
       <use xlink:href="#m5e6785853e" x="139.969325" y="528.795875" style="stroke: #000000; stroke-width: 0.8"/>
      </g>
     </g>
     <g id="text_2">
      <!-- −0.4 -->
      <g transform="translate(127.827918 543.394312) scale(0.1 -0.1)">
       <defs>
        <path id="DejaVuSans-34" d="M 2419 4116 
L 825 1625 
L 2419 1625 
L 2419 4116 
z
M 2253 4666 
L 3047 4666 
L 3047 1625 
L 3713 1625 
L 3713 1100 
L 3047 1100 
L 3047 0 
L 2419 0 
L 2419 1100 
L 313 1100 
L 313 1709 
L 2253 4666 
z
" transform="scale(0.015625)"/>
       </defs>
       <use xlink:href="#DejaVuSans-2212"/>
       <use xlink:href="#DejaVuSans-30" transform="translate(83.789062 0)"/>
       <use xlink:href="#DejaVuSans-2e" transform="translate(147.412109 0)"/>
       <use xlink:href="#DejaVuSans-34" transform="translate(179.199219 0)"/>
      </g>
     </g>
    </g>
    <g id="xtick_3">
     <g id="line2d_5">
      <path d="M 219.795131 528.795875 
L 219.795131 33.875875 
" clip-path="url(#p386e2273d7)" style="fill: none; stroke: #b0b0b0; stroke-opacity: 0.18; stroke-width: 0.8; stroke-linecap: square"/>
     </g>
     <g id="line2d_6">
      <g>
       <use xlink:href="#m5e6785853e" x="219.795131" y="528.795875" style="stroke: #000000; stroke-width: 0.8"/>
      </g>
     </g>
     <g id="text_3">
      <!-- −0.2 -->
      <g transform="translate(207.653725 543.394312) scale(0.1 -0.1)">
       <defs>
        <path id="DejaVuSans-32" d="M 1228 531 
L 3431 531 
L 3431 0 
L 469 0 
L 469 531 
Q 828 903 1448 1529 
Q 2069 2156 2228 2338 
Q 2531 2678 2651 2914 
Q 2772 3150 2772 3378 
Q 2772 3750 2511 3984 
Q 2250 4219 1831 4219 
Q 1534 4219 1204 4116 
Q 875 4013 500 3803 
L 500 4441 
Q 881 4594 1212 4672 
Q 1544 4750 1819 4750 
Q 2544 4750 2975 4387 
Q 3406 4025 3406 3419 
Q 3406 3131 3298 2873 
Q 3191 2616 2906 2266 
Q 2828 2175 2409 1742 
Q 1991 1309 1228 531 
z
" transform="scale(0.015625)"/>
       </defs>
       <use xlink:href="#DejaVuSans-2212"/>
       <use xlink:href="#DejaVuSans-30" transform="translate(83.789062 0)"/>
       <use xlink:href="#DejaVuSans-2e" transform="translate(147.412109 0)"/>
       <use xlink:href="#DejaVuSans-32" transform="translate(179.199219 0)"/>
      </g>
     </g>
    </g>
    <g id="xtick_4">
     <g id="line2d_7">
      <path d="M 299.620938 528.795875 
L 299.620938 33.875875 
" clip-path="url(#p386e2273d7)" style="fill: none; stroke: #b0b0b0; stroke-opacity: 0.18; stroke-width: 0.8; stroke-linecap: square"/>
     </g>
     <g id="line2d_8">
      <g>
       <use xlink:href="#m5e6785853e" x="299.620938" y="528.795875" style="stroke: #000000; stroke-width: 0.8"/>
      </g>
     </g>
     <g id="text_4">
      <!-- 0.0 -->
      <g transform="translate(291.669375 543.394312) scale(0.1 -0.1)">
       <use xlink:href="#DejaVuSans-30"/>
       <use xlink:href="#DejaVuSans-2e" transform="translate(63.623047 0)"/>
       <use xlink:href="#DejaVuSans-30" transform="translate(95.410156 0)"/>
      </g>
     </g>
    </g>
    <g id="xtick_5">
     <g id="line2d_9">
      <path d="M 379.446744 528.795875 
L 379.446744 33.875875 
" clip-path="url(#p386e2273d7)" style="fill: none; stroke: #b0b0b0; stroke-opacity: 0.18; stroke-width: 0.8; stroke-linecap: square"/>
     </g>
     <g id="line2d_10">
      <g>
       <use xlink:href="#m5e6785853e" x="379.446744" y="528.795875" style="stroke: #000000; stroke-width: 0.8"/>
      </g>
     </g>
     <g id="text_5">
      <!-- 0.2 -->
      <g transform="translate(371.495181 543.394312) scale(0.1 -0.1)">
       <use xlink:href="#DejaVuSans-30"/>
       <use xlink:href="#DejaVuSans-2e" transform="translate(63.623047 0)"/>
       <use xlink:href="#DejaVuSans-32" transform="translate(95.410156 0)"/>
      </g>
     </g>
    </g>
    <g id="xtick_6">
     <g id="line2d_11">
      <path d="M 459.27255 528.795875 
L 459.27255 33.875875 
" clip-path="url(#p386e2273d7)" style="fill: none; stroke: #b0b0b0; stroke-opacity: 0.18; stroke-width: 0.8; stroke-linecap: square"/>
     </g>
     <g id="line2d_12">
      <g>
       <use xlink:href="#m5e6785853e" x="459.27255" y="528.795875" style="stroke: #000000; stroke-width: 0.8"/>
      </g>
     </g>
     <g id="text_6">
      <!-- 0.4 -->
      <g transform="translate(451.320988 543.394312) scale(0.1 -0.1)">
       <use xlink:href="#DejaVuSans-30"/>
       <use xlink:href="#DejaVuSans-2e" transform="translate(63.623047 0)"/>
       <use xlink:href="#DejaVuSans-34" transform="translate(95.410156 0)"/>
      </g>
     </g>
    </g>
    <g id="xtick_7">
     <g id="line2d_13">
      <path d="M 539.098357 528.795875 
L 539.098357 33.875875 
" clip-path="url(#p386e2273d7)" style="fill: none; stroke: #b0b0b0; stroke-opacity: 0.18; stroke-width: 0.8; stroke-linecap: square"/>
     </g>
     <g id="line2d_14">
      <g>
       <use xlink:href="#m5e6785853e" x="539.098357" y="528.795875" style="stroke: #000000; stroke-width: 0.8"/>
      </g>
     </g>
     <g id="text_7">
      <!-- 0.6 -->
      <g transform="translate(531.146794 543.394312) scale(0.1 -0.1)">
       <use xlink:href="#DejaVuSans-30"/>
       <use xlink:href="#DejaVuSans-2e" transform="translate(63.623047 0)"/>
       <use xlink:href="#DejaVuSans-36" transform="translate(95.410156 0)"/>
      </g>
     </g>
    </g>
    <g id="text_8">
     <!-- PCMCI+ lag-1 coefficient -->
     <g transform="translate(237.715469 557.072437) scale(0.1 -0.1)">
      <defs>
       <path id="DejaVuSans-50" d="M 1259 4147 
L 1259 2394 
L 2053 2394 
Q 2494 2394 2734 2622 
Q 2975 2850 2975 3272 
Q 2975 3691 2734 3919 
Q 2494 4147 2053 4147 
L 1259 4147 
z
M 628 4666 
L 2053 4666 
Q 2838 4666 3239 4311 
Q 3641 3956 3641 3272 
Q 3641 2581 3239 2228 
Q 2838 1875 2053 1875 
L 1259 1875 
L 1259 0 
L 628 0 
L 628 4666 
z
" transform="scale(0.015625)"/>
       <path id="DejaVuSans-43" d="M 4122 4306 
L 4122 3641 
Q 3803 3938 3442 4084 
Q 3081 4231 2675 4231 
Q 1875 4231 1450 3742 
Q 1025 3253 1025 2328 
Q 1025 1406 1450 917 
Q 1875 428 2675 428 
Q 3081 428 3442 575 
Q 3803 722 4122 1019 
L 4122 359 
Q 3791 134 3420 21 
Q 3050 -91 2638 -91 
Q 1578 -91 968 557 
Q 359 1206 359 2328 
Q 359 3453 968 4101 
Q 1578 4750 2638 4750 
Q 3056 4750 3426 4639 
Q 3797 4528 4122 4306 
z
" transform="scale(0.015625)"/>
       <path id="DejaVuSans-4d" d="M 628 4666 
L 1569 4666 
L 2759 1491 
L 3956 4666 
L 4897 4666 
L 4897 0 
L 4281 0 
L 4281 4097 
L 3078 897 
L 2444 897 
L 1241 4097 
L 1241 0 
L 628 0 
L 628 4666 
z
" transform="scale(0.015625)"/>
       <path id="DejaVuSans-49" d="M 628 4666 
L 1259 4666 
L 1259 0 
L 628 0 
L 628 4666 
z
" transform="scale(0.015625)"/>
       <path id="DejaVuSans-2b" d="M 2944 4013 
L 2944 2272 
L 4684 2272 
L 4684 1741 
L 2944 1741 
L 2944 0 
L 2419 0 
L 2419 1741 
L 678 1741 
L 678 2272 
L 2419 2272 
L 2419 4013 
L 2944 4013 
z
" transform="scale(0.015625)"/>
       <path id="DejaVuSans-20" transform="scale(0.015625)"/>
       <path id="DejaVuSans-6c" d="M 603 4863 
L 1178 4863 
L 1178 0 
L 603 0 
L 603 4863 
z
" transform="scale(0.015625)"/>
       <path id="DejaVuSans-61" d="M 2194 1759 
Q 1497 1759 1228 1600 
Q 959 1441 959 1056 
Q 959 750 1161 570 
Q 1363 391 1709 391 
Q 2188 391 2477 730 
Q 2766 1069 2766 1631 
L 2766 1759 
L 2194 1759 
z
M 3341 1997 
L 3341 0 
L 2766 0 
L 2766 531 
Q 2569 213 2275 61 
Q 1981 -91 1556 -91 
Q 1019 -91 701 211 
Q 384 513 384 1019 
Q 384 1609 779 1909 
Q 1175 2209 1959 2209 
L 2766 2209 
L 2766 2266 
Q 2766 2663 2505 2880 
Q 2244 3097 1772 3097 
Q 1472 3097 1187 3025 
Q 903 2953 641 2809 
L 641 3341 
Q 956 3463 1253 3523 
Q 1550 3584 1831 3584 
Q 2591 3584 2966 3190 
Q 3341 2797 3341 1997 
z
" transform="scale(0.015625)"/>
       <path id="DejaVuSans-67" d="M 2906 1791 
Q 2906 2416 2648 2759 
Q 2391 3103 1925 3103 
Q 1463 3103 1205 2759 
Q 947 2416 947 1791 
Q 947 1169 1205 825 
Q 1463 481 1925 481 
Q 2391 481 2648 825 
Q 2906 1169 2906 1791 
z
M 3481 434 
Q 3481 -459 3084 -895 
Q 2688 -1331 1869 -1331 
Q 1566 -1331 1297 -1286 
Q 1028 -1241 775 -1147 
L 775 -588 
Q 1028 -725 1275 -790 
Q 1522 -856 1778 -856 
Q 2344 -856 2625 -561 
Q 2906 -266 2906 331 
L 2906 616 
Q 2728 306 2450 153 
Q 2172 0 1784 0 
Q 1141 0 747 490 
Q 353 981 353 1791 
Q 353 2603 747 3093 
Q 1141 3584 1784 3584 
Q 2172 3584 2450 3431 
Q 2728 3278 2906 2969 
L 2906 3500 
L 3481 3500 
L 3481 434 
z
" transform="scale(0.015625)"/>
       <path id="DejaVuSans-2d" d="M 313 2009 
L 1997 2009 
L 1997 1497 
L 313 1497 
L 313 2009 
z
" transform="scale(0.015625)"/>
       <path id="DejaVuSans-31" d="M 794 531 
L 1825 531 
L 1825 4091 
L 703 3866 
L 703 4441 
L 1819 4666 
L 2450 4666 
L 2450 531 
L 3481 531 
L 3481 0 
L 794 0 
L 794 531 
z
" transform="scale(0.015625)"/>
       <path id="DejaVuSans-63" d="M 3122 3366 
L 3122 2828 
Q 2878 2963 2633 3030 
Q 2388 3097 2138 3097 
Q 1578 3097 1268 2742 
Q 959 2388 959 1747 
Q 959 1106 1268 751 
Q 1578 397 2138 397 
Q 2388 397 2633 464 
Q 2878 531 3122 666 
L 3122 134 
Q 2881 22 2623 -34 
Q 2366 -91 2075 -91 
Q 1284 -91 818 406 
Q 353 903 353 1747 
Q 353 2603 823 3093 
Q 1294 3584 2113 3584 
Q 2378 3584 2631 3529 
Q 2884 3475 3122 3366 
z
" transform="scale(0.015625)"/>
       <path id="DejaVuSans-6f" d="M 1959 3097 
Q 1497 3097 1228 2736 
Q 959 2375 959 1747 
Q 959 1119 1226 758 
Q 1494 397 1959 397 
Q 2419 397 2687 759 
Q 2956 1122 2956 1747 
Q 2956 2369 2687 2733 
Q 2419 3097 1959 3097 
z
M 1959 3584 
Q 2709 3584 3137 3096 
Q 3566 2609 3566 1747 
Q 3566 888 3137 398 
Q 2709 -91 1959 -91 
Q 1206 -91 779 398 
Q 353 888 353 1747 
Q 353 2609 779 3096 
Q 1206 3584 1959 3584 
z
" transform="scale(0.015625)"/>
       <path id="DejaVuSans-65" d="M 3597 1894 
L 3597 1613 
L 953 1613 
Q 991 1019 1311 708 
Q 1631 397 2203 397 
Q 2534 397 2845 478 
Q 3156 559 3463 722 
L 3463 178 
Q 3153 47 2828 -22 
Q 2503 -91 2169 -91 
Q 1331 -91 842 396 
Q 353 884 353 1716 
Q 353 2575 817 3079 
Q 1281 3584 2069 3584 
Q 2775 3584 3186 3129 
Q 3597 2675 3597 1894 
z
M 3022 2063 
Q 3016 2534 2758 2815 
Q 2500 3097 2075 3097 
Q 1594 3097 1305 2825 
Q 1016 2553 972 2059 
L 3022 2063 
z
" transform="scale(0.015625)"/>
       <path id="DejaVuSans-66" d="M 2375 4863 
L 2375 4384 
L 1825 4384 
Q 1516 4384 1395 4259 
Q 1275 4134 1275 3809 
L 1275 3500 
L 2222 3500 
L 2222 3053 
L 1275 3053 
L 1275 0 
L 697 0 
L 697 3053 
L 147 3053 
L 147 3500 
L 697 3500 
L 697 3744 
Q 697 4328 969 4595 
Q 1241 4863 1831 4863 
L 2375 4863 
z
" transform="scale(0.015625)"/>
       <path id="DejaVuSans-69" d="M 603 3500 
L 1178 3500 
L 1178 0 
L 603 0 
L 603 3500 
z
M 603 4863 
L 1178 4863 
L 1178 4134 
L 603 4134 
L 603 4863 
z
" transform="scale(0.015625)"/>
       <path id="DejaVuSans-6e" d="M 3513 2113 
L 3513 0 
L 2938 0 
L 2938 2094 
Q 2938 2591 2744 2837 
Q 2550 3084 2163 3084 
Q 1697 3084 1428 2787 
Q 1159 2491 1159 1978 
L 1159 0 
L 581 0 
L 581 3500 
L 1159 3500 
L 1159 2956 
Q 1366 3272 1645 3428 
Q 1925 3584 2291 3584 
Q 2894 3584 3203 3211 
Q 3513 2838 3513 2113 
z
" transform="scale(0.015625)"/>
       <path id="DejaVuSans-74" d="M 1172 4494 
L 1172 3500 
L 2356 3500 
L 2356 3053 
L 1172 3053 
L 1172 1153 
Q 1172 725 1289 603 
Q 1406 481 1766 481 
L 2356 481 
L 2356 0 
L 1766 0 
Q 1100 0 847 248 
Q 594 497 594 1153 
L 594 3053 
L 172 3053 
L 172 3500 
L 594 3500 
L 594 4494 
L 1172 4494 
z
" transform="scale(0.015625)"/>
      </defs>
      <use xlink:href="#DejaVuSans-50"/>
      <use xlink:href="#DejaVuSans-43" transform="translate(60.302734 0)"/>
      <use xlink:href="#DejaVuSans-4d" transform="translate(130.126953 0)"/>
      <use xlink:href="#DejaVuSans-43" transform="translate(216.40625 0)"/>
      <use xlink:href="#DejaVuSans-49" transform="translate(286.230469 0)"/>
      <use xlink:href="#DejaVuSans-2b" transform="translate(315.722656 0)"/>
      <use xlink:href="#DejaVuSans-20" transform="translate(399.511719 0)"/>
      <use xlink:href="#DejaVuSans-6c" transform="translate(431.298828 0)"/>
      <use xlink:href="#DejaVuSans-61" transform="translate(459.082031 0)"/>
      <use xlink:href="#DejaVuSans-67" transform="translate(520.361328 0)"/>
      <use xlink:href="#DejaVuSans-2d" transform="translate(583.837891 0)"/>
      <use xlink:href="#DejaVuSans-31" transform="translate(619.921875 0)"/>
      <use xlink:href="#DejaVuSans-20" transform="translate(683.544922 0)"/>
      <use xlink:href="#DejaVuSans-63" transform="translate(715.332031 0)"/>
      <use xlink:href="#DejaVuSans-6f" transform="translate(770.3125 0)"/>
      <use xlink:href="#DejaVuSans-65" transform="translate(831.494141 0)"/>
      <use xlink:href="#DejaVuSans-66" transform="translate(893.017578 0)"/>
      <use xlink:href="#DejaVuSans-66" transform="translate(928.222656 0)"/>
      <use xlink:href="#DejaVuSans-69" transform="translate(963.427734 0)"/>
      <use xlink:href="#DejaVuSans-63" transform="translate(991.210938 0)"/>
      <use xlink:href="#DejaVuSans-69" transform="translate(1046.191406 0)"/>
      <use xlink:href="#DejaVuSans-65" transform="translate(1073.974609 0)"/>
      <use xlink:href="#DejaVuSans-6e" transform="translate(1135.498047 0)"/>
      <use xlink:href="#DejaVuSans-74" transform="translate(1198.876953 0)"/>
     </g>
    </g>
   </g>
   <g id="matplotlib.axis_2">
    <g id="ytick_1">
     <g id="line2d_15">
      <path d="M 52.160938 520.813294 
L 547.080938 520.813294 
" clip-path="url(#p386e2273d7)" style="fill: none; stroke: #b0b0b0; stroke-opacity: 0.18; stroke-width: 0.8; stroke-linecap: square"/>
     </g>
     <g id="line2d_16">
      <defs>
       <path id="mb1055e2148" d="M 0 0 
L -3.5 0 
" style="stroke: #000000; stroke-width: 0.8"/>
      </defs>
      <g>
       <use xlink:href="#mb1055e2148" x="52.160938" y="520.813294" style="stroke: #000000; stroke-width: 0.8"/>
      </g>
     </g>
     <g id="text_9">
      <!-- −0.6 -->
      <g transform="translate(20.878125 524.612513) scale(0.1 -0.1)">
       <use xlink:href="#DejaVuSans-2212"/>
       <use xlink:href="#DejaVuSans-30" transform="translate(83.789062 0)"/>
       <use xlink:href="#DejaVuSans-2e" transform="translate(147.412109 0)"/>
       <use xlink:href="#DejaVuSans-36" transform="translate(179.199219 0)"/>
      </g>
     </g>
    </g>
    <g id="ytick_2">
     <g id="line2d_17">
      <path d="M 52.160938 440.987488 
L 547.080938 440.987488 
" clip-path="url(#p386e2273d7)" style="fill: none; stroke: #b0b0b0; stroke-opacity: 0.18; stroke-width: 0.8; stroke-linecap: square"/>
     </g>
     <g id="line2d_18">
      <g>
       <use xlink:href="#mb1055e2148" x="52.160938" y="440.987488" style="stroke: #000000; stroke-width: 0.8"/>
      </g>
     </g>
     <g id="text_10">
      <!-- −0.4 -->
      <g transform="translate(20.878125 444.786707) scale(0.1 -0.1)">
       <use xlink:href="#DejaVuSans-2212"/>
       <use xlink:href="#DejaVuSans-30" transform="translate(83.789062 0)"/>
       <use xlink:href="#DejaVuSans-2e" transform="translate(147.412109 0)"/>
       <use xlink:href="#DejaVuSans-34" transform="translate(179.199219 0)"/>
      </g>
     </g>
    </g>
    <g id="ytick_3">
     <g id="line2d_19">
      <path d="M 52.160938 361.161681 
L 547.080938 361.161681 
" clip-path="url(#p386e2273d7)" style="fill: none; stroke: #b0b0b0; stroke-opacity: 0.18; stroke-width: 0.8; stroke-linecap: square"/>
     </g>
     <g id="line2d_20">
      <g>
       <use xlink:href="#mb1055e2148" x="52.160938" y="361.161681" style="stroke: #000000; stroke-width: 0.8"/>
      </g>
     </g>
     <g id="text_11">
      <!-- −0.2 -->
      <g transform="translate(20.878125 364.9609) scale(0.1 -0.1)">
       <use xlink:href="#DejaVuSans-2212"/>
       <use xlink:href="#DejaVuSans-30" transform="translate(83.789062 0)"/>
       <use xlink:href="#DejaVuSans-2e" transform="translate(147.412109 0)"/>
       <use xlink:href="#DejaVuSans-32" transform="translate(179.199219 0)"/>
      </g>
     </g>
    </g>
    <g id="ytick_4">
     <g id="line2d_21">
      <path d="M 52.160938 281.335875 
L 547.080938 281.335875 
" clip-path="url(#p386e2273d7)" style="fill: none; stroke: #b0b0b0; stroke-opacity: 0.18; stroke-width: 0.8; stroke-linecap: square"/>
     </g>
     <g id="line2d_22">
      <g>
       <use xlink:href="#mb1055e2148" x="52.160938" y="281.335875" style="stroke: #000000; stroke-width: 0.8"/>
      </g>
     </g>
     <g id="text_12">
      <!-- 0.0 -->
      <g transform="translate(29.257813 285.135094) scale(0.1 -0.1)">
       <use xlink:href="#DejaVuSans-30"/>
       <use xlink:href="#DejaVuSans-2e" transform="translate(63.623047 0)"/>
       <use xlink:href="#DejaVuSans-30" transform="translate(95.410156 0)"/>
      </g>
     </g>
    </g>
    <g id="ytick_5">
     <g id="line2d_23">
      <path d="M 52.160938 201.510069 
L 547.080938 201.510069 
" clip-path="url(#p386e2273d7)" style="fill: none; stroke: #b0b0b0; stroke-opacity: 0.18; stroke-width: 0.8; stroke-linecap: square"/>
     </g>
     <g id="line2d_24">
      <g>
       <use xlink:href="#mb1055e2148" x="52.160938" y="201.510069" style="stroke: #000000; stroke-width: 0.8"/>
      </g>
     </g>
     <g id="text_13">
      <!-- 0.2 -->
      <g transform="translate(29.257813 205.309287) scale(0.1 -0.1)">
       <use xlink:href="#DejaVuSans-30"/>
       <use xlink:href="#DejaVuSans-2e" transform="translate(63.623047 0)"/>
       <use xlink:href="#DejaVuSans-32" transform="translate(95.410156 0)"/>
      </g>
     </g>
    </g>
    <g id="ytick_6">
     <g id="line2d_25">
      <path d="M 52.160938 121.684262 
L 547.080938 121.684262 
" clip-path="url(#p386e2273d7)" style="fill: none; stroke: #b0b0b0; stroke-opacity: 0.18; stroke-width: 0.8; stroke-linecap: square"/>
     </g>
     <g id="line2d_26">
      <g>
       <use xlink:href="#mb1055e2148" x="52.160938" y="121.684262" style="stroke: #000000; stroke-width: 0.8"/>
      </g>
     </g>
     <g id="text_14">
      <!-- 0.4 -->
      <g transform="translate(29.257813 125.483481) scale(0.1 -0.1)">
       <use xlink:href="#DejaVuSans-30"/>
       <use xlink:href="#DejaVuSans-2e" transform="translate(63.623047 0)"/>
       <use xlink:href="#DejaVuSans-34" transform="translate(95.410156 0)"/>
      </g>
     </g>
    </g>
    <g id="ytick_7">
     <g id="line2d_27">
      <path d="M 52.160938 41.858456 
L 547.080938 41.858456 
" clip-path="url(#p386e2273d7)" style="fill: none; stroke: #b0b0b0; stroke-opacity: 0.18; stroke-width: 0.8; stroke-linecap: square"/>
     </g>
     <g id="line2d_28">
      <g>
       <use xlink:href="#mb1055e2148" x="52.160938" y="41.858456" style="stroke: #000000; stroke-width: 0.8"/>
      </g>
     </g>
     <g id="text_15">
      <!-- 0.6 -->
      <g transform="translate(29.257813 45.657674) scale(0.1 -0.1)">
       <use xlink:href="#DejaVuSans-30"/>
       <use xlink:href="#DejaVuSans-2e" transform="translate(63.623047 0)"/>
       <use xlink:href="#DejaVuSans-36" transform="translate(95.410156 0)"/>
      </g>
     </g>
    </g>
    <g id="text_16">
     <!-- LPCMCI lag-1 coefficient -->
     <g transform="translate(14.798438 341.837437) rotate(-90) scale(0.1 -0.1)">
      <defs>
       <path id="DejaVuSans-4c" d="M 628 4666 
L 1259 4666 
L 1259 531 
L 3531 531 
L 3531 0 
L 628 0 
L 628 4666 
z
" transform="scale(0.015625)"/>
      </defs>
      <use xlink:href="#DejaVuSans-4c"/>
      <use xlink:href="#DejaVuSans-50" transform="translate(55.712891 0)"/>
      <use xlink:href="#DejaVuSans-43" transform="translate(116.015625 0)"/>
      <use xlink:href="#DejaVuSans-4d" transform="translate(185.839844 0)"/>
      <use xlink:href="#DejaVuSans-43" transform="translate(272.119141 0)"/>
      <use xlink:href="#DejaVuSans-49" transform="translate(341.943359 0)"/>
      <use xlink:href="#DejaVuSans-20" transform="translate(371.435547 0)"/>
      <use xlink:href="#DejaVuSans-6c" transform="translate(403.222656 0)"/>
      <use xlink:href="#DejaVuSans-61" transform="translate(431.005859 0)"/>
      <use xlink:href="#DejaVuSans-67" transform="translate(492.285156 0)"/>
      <use xlink:href="#DejaVuSans-2d" transform="translate(555.761719 0)"/>
      <use xlink:href="#DejaVuSans-31" transform="translate(591.845703 0)"/>
      <use xlink:href="#DejaVuSans-20" transform="translate(655.46875 0)"/>
      <use xlink:href="#DejaVuSans-63" transform="translate(687.255859 0)"/>
      <use xlink:href="#DejaVuSans-6f" transform="translate(742.236328 0)"/>
      <use xlink:href="#DejaVuSans-65" transform="translate(803.417969 0)"/>
      <use xlink:href="#DejaVuSans-66" transform="translate(864.941406 0)"/>
      <use xlink:href="#DejaVuSans-66" transform="translate(900.146484 0)"/>
      <use xlink:href="#DejaVuSans-69" transform="translate(935.351562 0)"/>
      <use xlink:href="#DejaVuSans-63" transform="translate(963.134766 0)"/>
      <use xlink:href="#DejaVuSans-69" transform="translate(1018.115234 0)"/>
      <use xlink:href="#DejaVuSans-65" transform="translate(1045.898438 0)"/>
      <use xlink:href="#DejaVuSans-6e" transform="translate(1107.421875 0)"/>
      <use xlink:href="#DejaVuSans-74" transform="translate(1170.800781 0)"/>
     </g>
    </g>
   </g>
   <g id="line2d_29">
    <path d="M 52.160938 528.795875 
L 547.080938 33.875875 
" clip-path="url(#p386e2273d7)" style="fill: none; stroke-dasharray: 3.7,1.6; stroke-dashoffset: 0; stroke: #888888"/>
   </g>
   <g id="line2d_30">
    <path d="M 52.160938 281.335875 
L 547.080938 281.335875 
" clip-path="url(#p386e2273d7)" style="fill: none; stroke: #999999; stroke-opacity: 0.5; stroke-width: 0.7; stroke-linecap: square"/>
   </g>
   <g id="line2d_31">
    <path d="M 299.620938 528.795875 
L 299.620938 33.875875 
" clip-path="url(#p386e2273d7)" style="fill: none; stroke: #999999; stroke-opacity: 0.5; stroke-width: 0.7; stroke-linecap: square"/>
   </g>
   <g id="patch_3">
    <path d="M 52.160938 528.795875 
L 52.160938 33.875875 
" style="fill: none; stroke: #000000; stroke-width: 0.8; stroke-linejoin: miter; stroke-linecap: square"/>
   </g>
   <g id="patch_4">
    <path d="M 52.160938 528.795875 
L 547.080938 528.795875 
" style="fill: none; stroke: #000000; stroke-width: 0.8; stroke-linejoin: miter; stroke-linecap: square"/>
   </g>
   <g id="PathCollection_1">
    <defs>
     <path id="m69256798ce" d="M -0 7.245688 
L 7.245688 0 
L 0 -7.245688 
L -7.245688 -0 
z
" style="stroke: #000000; stroke-width: 0.8"/>
    </defs>
    <g clip-path="url(#p386e2273d7)">
     <use xlink:href="#m69256798ce" x="299.620938" y="429.117057" style="fill: #e34a14; stroke: #000000; stroke-width: 0.8"/>
     <use xlink:href="#m69256798ce" x="305.341194" y="407.887816" style="fill: #e34a14; stroke: #000000; stroke-width: 0.8"/>
     <use xlink:href="#m69256798ce" x="294.781373" y="70.948719" style="fill: #e34a14; stroke: #000000; stroke-width: 0.8"/>
     <use xlink:href="#m69256798ce" x="299.620938" y="432.850178" style="fill: #e34a14; stroke: #000000; stroke-width: 0.8"/>
     <use xlink:href="#m69256798ce" x="299.620938" y="121.044128" style="fill: #e34a14; stroke: #000000; stroke-width: 0.8"/>
    </g>
   </g>
   <g id="patch_5">
    <path d="M 258.619372 426.129831 
Q 278.122894 427.550787 297.626416 428.971743 
" style="fill: none; stroke: #999999; stroke-width: 0.6; stroke-linecap: round"/>
   </g>
   <g id="text_17">
    <!-- Gangnam NO2-&gt;CO -->
    <g transform="translate(174.217188 425.117057) scale(0.08 -0.08)">
     <defs>
      <path id="DejaVuSans-47" d="M 3809 666 
L 3809 1919 
L 2778 1919 
L 2778 2438 
L 4434 2438 
L 4434 434 
Q 4069 175 3628 42 
Q 3188 -91 2688 -91 
Q 1594 -91 976 548 
Q 359 1188 359 2328 
Q 359 3472 976 4111 
Q 1594 4750 2688 4750 
Q 3144 4750 3555 4637 
Q 3966 4525 4313 4306 
L 4313 3634 
Q 3963 3931 3569 4081 
Q 3175 4231 2741 4231 
Q 1884 4231 1454 3753 
Q 1025 3275 1025 2328 
Q 1025 1384 1454 906 
Q 1884 428 2741 428 
Q 3075 428 3337 486 
Q 3600 544 3809 666 
z
" transform="scale(0.015625)"/>
      <path id="DejaVuSans-6d" d="M 3328 2828 
Q 3544 3216 3844 3400 
Q 4144 3584 4550 3584 
Q 5097 3584 5394 3201 
Q 5691 2819 5691 2113 
L 5691 0 
L 5113 0 
L 5113 2094 
Q 5113 2597 4934 2840 
Q 4756 3084 4391 3084 
Q 3944 3084 3684 2787 
Q 3425 2491 3425 1978 
L 3425 0 
L 2847 0 
L 2847 2094 
Q 2847 2600 2669 2842 
Q 2491 3084 2119 3084 
Q 1678 3084 1418 2786 
Q 1159 2488 1159 1978 
L 1159 0 
L 581 0 
L 581 3500 
L 1159 3500 
L 1159 2956 
Q 1356 3278 1631 3431 
Q 1906 3584 2284 3584 
Q 2666 3584 2933 3390 
Q 3200 3197 3328 2828 
z
" transform="scale(0.015625)"/>
      <path id="DejaVuSans-4e" d="M 628 4666 
L 1478 4666 
L 3547 763 
L 3547 4666 
L 4159 4666 
L 4159 0 
L 3309 0 
L 1241 3903 
L 1241 0 
L 628 0 
L 628 4666 
z
" transform="scale(0.015625)"/>
      <path id="DejaVuSans-4f" d="M 2522 4238 
Q 1834 4238 1429 3725 
Q 1025 3213 1025 2328 
Q 1025 1447 1429 934 
Q 1834 422 2522 422 
Q 3209 422 3611 934 
Q 4013 1447 4013 2328 
Q 4013 3213 3611 3725 
Q 3209 4238 2522 4238 
z
M 2522 4750 
Q 3503 4750 4090 4092 
Q 4678 3434 4678 2328 
Q 4678 1225 4090 567 
Q 3503 -91 2522 -91 
Q 1538 -91 948 565 
Q 359 1222 359 2328 
Q 359 3434 948 4092 
Q 1538 4750 2522 4750 
z
" transform="scale(0.015625)"/>
      <path id="DejaVuSans-3e" d="M 678 3150 
L 678 3719 
L 4684 2266 
L 4684 1747 
L 678 294 
L 678 863 
L 3897 2003 
L 678 3150 
z
" transform="scale(0.015625)"/>
     </defs>
     <use xlink:href="#DejaVuSans-47"/>
     <use xlink:href="#DejaVuSans-61" transform="translate(77.490234 0)"/>
     <use xlink:href="#DejaVuSans-6e" transform="translate(138.769531 0)"/>
     <use xlink:href="#DejaVuSans-67" transform="translate(202.148438 0)"/>
     <use xlink:href="#DejaVuSans-6e" transform="translate(265.625 0)"/>
     <use xlink:href="#DejaVuSans-61" transform="translate(329.003906 0)"/>
     <use xlink:href="#DejaVuSans-6d" transform="translate(390.283203 0)"/>
     <use xlink:href="#DejaVuSans-20" transform="translate(487.695312 0)"/>
     <use xlink:href="#DejaVuSans-4e" transform="translate(519.482422 0)"/>
     <use xlink:href="#DejaVuSans-4f" transform="translate(594.287109 0)"/>
     <use xlink:href="#DejaVuSans-32" transform="translate(672.998047 0)"/>
     <use xlink:href="#DejaVuSans-2d" transform="translate(736.621094 0)"/>
     <use xlink:href="#DejaVuSans-3e" transform="translate(772.705078 0)"/>
     <use xlink:href="#DejaVuSans-43" transform="translate(856.494141 0)"/>
     <use xlink:href="#DejaVuSans-4f" transform="translate(926.318359 0)"/>
    </g>
   </g>
   <g id="patch_6">
    <path d="M 250.293009 394.03914 
Q 276.847778 400.719622 303.402546 407.400103 
" style="fill: none; stroke: #999999; stroke-width: 0.6; stroke-linecap: round"/>
   </g>
   <g id="text_18">
    <!-- Seocho NO2-&gt;CO -->
    <g transform="translate(189.692444 389.887816) scale(0.08 -0.08)">
     <defs>
      <path id="DejaVuSans-53" d="M 3425 4513 
L 3425 3897 
Q 3066 4069 2747 4153 
Q 2428 4238 2131 4238 
Q 1616 4238 1336 4038 
Q 1056 3838 1056 3469 
Q 1056 3159 1242 3001 
Q 1428 2844 1947 2747 
L 2328 2669 
Q 3034 2534 3370 2195 
Q 3706 1856 3706 1288 
Q 3706 609 3251 259 
Q 2797 -91 1919 -91 
Q 1588 -91 1214 -16 
Q 841 59 441 206 
L 441 856 
Q 825 641 1194 531 
Q 1563 422 1919 422 
Q 2459 422 2753 634 
Q 3047 847 3047 1241 
Q 3047 1584 2836 1778 
Q 2625 1972 2144 2069 
L 1759 2144 
Q 1053 2284 737 2584 
Q 422 2884 422 3419 
Q 422 4038 858 4394 
Q 1294 4750 2059 4750 
Q 2388 4750 2728 4690 
Q 3069 4631 3425 4513 
z
" transform="scale(0.015625)"/>
      <path id="DejaVuSans-68" d="M 3513 2113 
L 3513 0 
L 2938 0 
L 2938 2094 
Q 2938 2591 2744 2837 
Q 2550 3084 2163 3084 
Q 1697 3084 1428 2787 
Q 1159 2491 1159 1978 
L 1159 0 
L 581 0 
L 581 4863 
L 1159 4863 
L 1159 2956 
Q 1366 3272 1645 3428 
Q 1925 3584 2291 3584 
Q 2894 3584 3203 3211 
Q 3513 2838 3513 2113 
z
" transform="scale(0.015625)"/>
     </defs>
     <use xlink:href="#DejaVuSans-53"/>
     <use xlink:href="#DejaVuSans-65" transform="translate(63.476562 0)"/>
     <use xlink:href="#DejaVuSans-6f" transform="translate(125 0)"/>
     <use xlink:href="#DejaVuSans-63" transform="translate(186.181641 0)"/>
     <use xlink:href="#DejaVuSans-68" transform="translate(241.162109 0)"/>
     <use xlink:href="#DejaVuSans-6f" transform="translate(304.541016 0)"/>
     <use xlink:href="#DejaVuSans-20" transform="translate(365.722656 0)"/>
     <use xlink:href="#DejaVuSans-4e" transform="translate(397.509766 0)"/>
     <use xlink:href="#DejaVuSans-4f" transform="translate(472.314453 0)"/>
     <use xlink:href="#DejaVuSans-32" transform="translate(551.025391 0)"/>
     <use xlink:href="#DejaVuSans-2d" transform="translate(614.648438 0)"/>
     <use xlink:href="#DejaVuSans-3e" transform="translate(650.732422 0)"/>
     <use xlink:href="#DejaVuSans-43" transform="translate(734.521484 0)"/>
     <use xlink:href="#DejaVuSans-4f" transform="translate(804.345703 0)"/>
    </g>
   </g>
   <g id="patch_7">
    <path d="M 280.769675 69.309989 
Q 286.781775 70.013131 292.793874 70.716272 
" style="fill: none; stroke: #999999; stroke-width: 0.6; stroke-linecap: round"/>
   </g>
   <g id="text_19">
    <!-- Seocho O3-&gt;NO2 -->
    <g transform="translate(206.628873 66.948719) scale(0.08 -0.08)">
     <defs>
      <path id="DejaVuSans-33" d="M 2597 2516 
Q 3050 2419 3304 2112 
Q 3559 1806 3559 1356 
Q 3559 666 3084 287 
Q 2609 -91 1734 -91 
Q 1441 -91 1130 -33 
Q 819 25 488 141 
L 488 750 
Q 750 597 1062 519 
Q 1375 441 1716 441 
Q 2309 441 2620 675 
Q 2931 909 2931 1356 
Q 2931 1769 2642 2001 
Q 2353 2234 1838 2234 
L 1294 2234 
L 1294 2753 
L 1863 2753 
Q 2328 2753 2575 2939 
Q 2822 3125 2822 3475 
Q 2822 3834 2567 4026 
Q 2313 4219 1838 4219 
Q 1578 4219 1281 4162 
Q 984 4106 628 3988 
L 628 4550 
Q 988 4650 1302 4700 
Q 1616 4750 1894 4750 
Q 2613 4750 3031 4423 
Q 3450 4097 3450 3541 
Q 3450 3153 3228 2886 
Q 3006 2619 2597 2516 
z
" transform="scale(0.015625)"/>
     </defs>
     <use xlink:href="#DejaVuSans-53"/>
     <use xlink:href="#DejaVuSans-65" transform="translate(63.476562 0)"/>
     <use xlink:href="#DejaVuSans-6f" transform="translate(125 0)"/>
     <use xlink:href="#DejaVuSans-63" transform="translate(186.181641 0)"/>
     <use xlink:href="#DejaVuSans-68" transform="translate(241.162109 0)"/>
     <use xlink:href="#DejaVuSans-6f" transform="translate(304.541016 0)"/>
     <use xlink:href="#DejaVuSans-20" transform="translate(365.722656 0)"/>
     <use xlink:href="#DejaVuSans-4f" transform="translate(397.509766 0)"/>
     <use xlink:href="#DejaVuSans-33" transform="translate(476.220703 0)"/>
     <use xlink:href="#DejaVuSans-2d" transform="translate(539.84375 0)"/>
     <use xlink:href="#DejaVuSans-3e" transform="translate(575.927734 0)"/>
     <use xlink:href="#DejaVuSans-4e" transform="translate(659.716797 0)"/>
     <use xlink:href="#DejaVuSans-4f" transform="translate(734.521484 0)"/>
     <use xlink:href="#DejaVuSans-32" transform="translate(813.232422 0)"/>
    </g>
   </g>
   <g id="patch_8">
    <path d="M 258.60051 438.138829 
Q 278.118011 435.622492 297.635513 433.106154 
" style="fill: none; stroke: #999999; stroke-width: 0.6; stroke-linecap: round"/>
   </g>
   <g id="text_20">
    <!-- Gangbuk NO2-&gt;CO -->
    <g transform="translate(177.200938 445.850178) scale(0.08 -0.08)">
     <defs>
      <path id="DejaVuSans-62" d="M 3116 1747 
Q 3116 2381 2855 2742 
Q 2594 3103 2138 3103 
Q 1681 3103 1420 2742 
Q 1159 2381 1159 1747 
Q 1159 1113 1420 752 
Q 1681 391 2138 391 
Q 2594 391 2855 752 
Q 3116 1113 3116 1747 
z
M 1159 2969 
Q 1341 3281 1617 3432 
Q 1894 3584 2278 3584 
Q 2916 3584 3314 3078 
Q 3713 2572 3713 1747 
Q 3713 922 3314 415 
Q 2916 -91 2278 -91 
Q 1894 -91 1617 61 
Q 1341 213 1159 525 
L 1159 0 
L 581 0 
L 581 4863 
L 1159 4863 
L 1159 2969 
z
" transform="scale(0.015625)"/>
      <path id="DejaVuSans-75" d="M 544 1381 
L 544 3500 
L 1119 3500 
L 1119 1403 
Q 1119 906 1312 657 
Q 1506 409 1894 409 
Q 2359 409 2629 706 
Q 2900 1003 2900 1516 
L 2900 3500 
L 3475 3500 
L 3475 0 
L 2900 0 
L 2900 538 
Q 2691 219 2414 64 
Q 2138 -91 1772 -91 
Q 1169 -91 856 284 
Q 544 659 544 1381 
z
M 1991 3584 
L 1991 3584 
z
" transform="scale(0.015625)"/>
      <path id="DejaVuSans-6b" d="M 581 4863 
L 1159 4863 
L 1159 1991 
L 2875 3500 
L 3609 3500 
L 1753 1863 
L 3688 0 
L 2938 0 
L 1159 1709 
L 1159 0 
L 581 0 
L 581 4863 
z
" transform="scale(0.015625)"/>
     </defs>
     <use xlink:href="#DejaVuSans-47"/>
     <use xlink:href="#DejaVuSans-61" transform="translate(77.490234 0)"/>
     <use xlink:href="#DejaVuSans-6e" transform="translate(138.769531 0)"/>
     <use xlink:href="#DejaVuSans-67" transform="translate(202.148438 0)"/>
     <use xlink:href="#DejaVuSans-62" transform="translate(265.625 0)"/>
     <use xlink:href="#DejaVuSans-75" transform="translate(329.101562 0)"/>
     <use xlink:href="#DejaVuSans-6b" transform="translate(392.480469 0)"/>
     <use xlink:href="#DejaVuSans-20" transform="translate(450.390625 0)"/>
     <use xlink:href="#DejaVuSans-4e" transform="translate(482.177734 0)"/>
     <use xlink:href="#DejaVuSans-4f" transform="translate(556.982422 0)"/>
     <use xlink:href="#DejaVuSans-32" transform="translate(635.693359 0)"/>
     <use xlink:href="#DejaVuSans-2d" transform="translate(699.316406 0)"/>
     <use xlink:href="#DejaVuSans-3e" transform="translate(735.400391 0)"/>
     <use xlink:href="#DejaVuSans-43" transform="translate(819.189453 0)"/>
     <use xlink:href="#DejaVuSans-4f" transform="translate(889.013672 0)"/>
    </g>
   </g>
   <g id="patch_9">
    <path d="M 305.633453 120.39805 
Q 303.620963 120.614303 301.608473 120.830556 
" style="fill: none; stroke: #999999; stroke-width: 0.6; stroke-linecap: round"/>
   </g>
   <g id="text_21">
    <!-- Gangbuk O3-&gt;NO2 -->
    <g transform="translate(309.620938 118.044128) scale(0.08 -0.08)">
     <use xlink:href="#DejaVuSans-47"/>
     <use xlink:href="#DejaVuSans-61" transform="translate(77.490234 0)"/>
     <use xlink:href="#DejaVuSans-6e" transform="translate(138.769531 0)"/>
     <use xlink:href="#DejaVuSans-67" transform="translate(202.148438 0)"/>
     <use xlink:href="#DejaVuSans-62" transform="translate(265.625 0)"/>
     <use xlink:href="#DejaVuSans-75" transform="translate(329.101562 0)"/>
     <use xlink:href="#DejaVuSans-6b" transform="translate(392.480469 0)"/>
     <use xlink:href="#DejaVuSans-20" transform="translate(450.390625 0)"/>
     <use xlink:href="#DejaVuSans-4f" transform="translate(482.177734 0)"/>
     <use xlink:href="#DejaVuSans-33" transform="translate(560.888672 0)"/>
     <use xlink:href="#DejaVuSans-2d" transform="translate(624.511719 0)"/>
     <use xlink:href="#DejaVuSans-3e" transform="translate(660.595703 0)"/>
     <use xlink:href="#DejaVuSans-4e" transform="translate(744.384766 0)"/>
     <use xlink:href="#DejaVuSans-4f" transform="translate(819.189453 0)"/>
     <use xlink:href="#DejaVuSans-32" transform="translate(897.900391 0)"/>
    </g>
   </g>
   <g id="PathCollection_2">
    <defs>
     <path id="m3fcf4e688c" d="M 0 3.535534 
C 0.937635 3.535534 1.836992 3.163008 2.5 2.5 
C 3.163008 1.836992 3.535534 0.937635 3.535534 0 
C 3.535534 -0.937635 3.163008 -1.836992 2.5 -2.5 
C 1.836992 -3.163008 0.937635 -3.535534 0 -3.535534 
C -0.937635 -3.535534 -1.836992 -3.163008 -2.5 -2.5 
C -3.163008 -1.836992 -3.535534 -0.937635 -3.535534 0 
C -3.535534 0.937635 -3.163008 1.836992 -2.5 2.5 
C -1.836992 3.163008 -0.937635 3.535534 0 3.535534 
z
" style="stroke: #ffffff; stroke-width: 0.8"/>
    </defs>
    <g clip-path="url(#p386e2273d7)">
     <use xlink:href="#m3fcf4e688c" x="299.620938" y="288.777074" style="fill: #377eb8; stroke: #ffffff; stroke-width: 0.8"/>
     <use xlink:href="#m3fcf4e688c" x="347.379589" y="233.876094" style="fill: #377eb8; stroke: #ffffff; stroke-width: 0.8"/>
     <use xlink:href="#m3fcf4e688c" x="299.620938" y="275.969848" style="fill: #377eb8; stroke: #ffffff; stroke-width: 0.8"/>
     <use xlink:href="#m3fcf4e688c" x="299.620938" y="270.415671" style="fill: #377eb8; stroke: #ffffff; stroke-width: 0.8"/>
     <use xlink:href="#m3fcf4e688c" x="299.620938" y="303.137279" style="fill: #377eb8; stroke: #ffffff; stroke-width: 0.8"/>
     <use xlink:href="#m3fcf4e688c" x="305.22458" y="268.768143" style="fill: #377eb8; stroke: #ffffff; stroke-width: 0.8"/>
     <use xlink:href="#m3fcf4e688c" x="299.620938" y="295.963924" style="fill: #377eb8; stroke: #ffffff; stroke-width: 0.8"/>
     <use xlink:href="#m3fcf4e688c" x="299.620938" y="288.240531" style="fill: #377eb8; stroke: #ffffff; stroke-width: 0.8"/>
     <use xlink:href="#m3fcf4e688c" x="299.620938" y="226.350438" style="fill: #377eb8; stroke: #ffffff; stroke-width: 0.8"/>
     <use xlink:href="#m3fcf4e688c" x="299.620938" y="290.271936" style="fill: #377eb8; stroke: #ffffff; stroke-width: 0.8"/>
     <use xlink:href="#m3fcf4e688c" x="299.620938" y="261.760071" style="fill: #377eb8; stroke: #ffffff; stroke-width: 0.8"/>
     <use xlink:href="#m3fcf4e688c" x="288.994679" y="281.335875" style="fill: #377eb8; stroke: #ffffff; stroke-width: 0.8"/>
     <use xlink:href="#m3fcf4e688c" x="299.620938" y="290.588365" style="fill: #377eb8; stroke: #ffffff; stroke-width: 0.8"/>
     <use xlink:href="#m3fcf4e688c" x="312.934926" y="274.193086" style="fill: #377eb8; stroke: #ffffff; stroke-width: 0.8"/>
     <use xlink:href="#m3fcf4e688c" x="299.620938" y="292.67006" style="fill: #377eb8; stroke: #ffffff; stroke-width: 0.8"/>
     <use xlink:href="#m3fcf4e688c" x="299.620938" y="266.41994" style="fill: #377eb8; stroke: #ffffff; stroke-width: 0.8"/>
     <use xlink:href="#m3fcf4e688c" x="271.878378" y="300.240579" style="fill: #377eb8; stroke: #ffffff; stroke-width: 0.8"/>
     <use xlink:href="#m3fcf4e688c" x="357.245144" y="222.905991" style="fill: #377eb8; stroke: #ffffff; stroke-width: 0.8"/>
     <use xlink:href="#m3fcf4e688c" x="299.620938" y="269.632876" style="fill: #377eb8; stroke: #ffffff; stroke-width: 0.8"/>
     <use xlink:href="#m3fcf4e688c" x="299.620938" y="290.088021" style="fill: #377eb8; stroke: #ffffff; stroke-width: 0.8"/>
     <use xlink:href="#m3fcf4e688c" x="299.620938" y="273.805701" style="fill: #377eb8; stroke: #ffffff; stroke-width: 0.8"/>
     <use xlink:href="#m3fcf4e688c" x="299.620938" y="273.246511" style="fill: #377eb8; stroke: #ffffff; stroke-width: 0.8"/>
     <use xlink:href="#m3fcf4e688c" x="299.620938" y="275.244571" style="fill: #377eb8; stroke: #ffffff; stroke-width: 0.8"/>
     <use xlink:href="#m3fcf4e688c" x="321.556058" y="259.344664" style="fill: #377eb8; stroke: #ffffff; stroke-width: 0.8"/>
     <use xlink:href="#m3fcf4e688c" x="299.620938" y="322.029447" style="fill: #377eb8; stroke: #ffffff; stroke-width: 0.8"/>
     <use xlink:href="#m3fcf4e688c" x="299.620938" y="275.194081" style="fill: #377eb8; stroke: #ffffff; stroke-width: 0.8"/>
     <use xlink:href="#m3fcf4e688c" x="299.620938" y="288.019157" style="fill: #377eb8; stroke: #ffffff; stroke-width: 0.8"/>
     <use xlink:href="#m3fcf4e688c" x="313.130631" y="254.335392" style="fill: #377eb8; stroke: #ffffff; stroke-width: 0.8"/>
     <use xlink:href="#m3fcf4e688c" x="308.364391" y="272.792466" style="fill: #377eb8; stroke: #ffffff; stroke-width: 0.8"/>
     <use xlink:href="#m3fcf4e688c" x="352.460832" y="231.84654" style="fill: #377eb8; stroke: #ffffff; stroke-width: 0.8"/>
     <use xlink:href="#m3fcf4e688c" x="299.620938" y="269.130262" style="fill: #377eb8; stroke: #ffffff; stroke-width: 0.8"/>
     <use xlink:href="#m3fcf4e688c" x="299.620938" y="271.991685" style="fill: #377eb8; stroke: #ffffff; stroke-width: 0.8"/>
     <use xlink:href="#m3fcf4e688c" x="299.620938" y="272.424432" style="fill: #377eb8; stroke: #ffffff; stroke-width: 0.8"/>
     <use xlink:href="#m3fcf4e688c" x="319.681971" y="266.227998" style="fill: #377eb8; stroke: #ffffff; stroke-width: 0.8"/>
     <use xlink:href="#m3fcf4e688c" x="299.620938" y="249.385098" style="fill: #377eb8; stroke: #ffffff; stroke-width: 0.8"/>
     <use xlink:href="#m3fcf4e688c" x="299.620938" y="286.412251" style="fill: #377eb8; stroke: #ffffff; stroke-width: 0.8"/>
     <use xlink:href="#m3fcf4e688c" x="313.028856" y="262.946781" style="fill: #377eb8; stroke: #ffffff; stroke-width: 0.8"/>
     <use xlink:href="#m3fcf4e688c" x="285.989667" y="281.335875" style="fill: #377eb8; stroke: #ffffff; stroke-width: 0.8"/>
     <use xlink:href="#m3fcf4e688c" x="299.620938" y="290.350511" style="fill: #377eb8; stroke: #ffffff; stroke-width: 0.8"/>
     <use xlink:href="#m3fcf4e688c" x="299.620938" y="289.167428" style="fill: #377eb8; stroke: #ffffff; stroke-width: 0.8"/>
    </g>
   </g>
   <g id="PathCollection_3">
    <defs>
     <path id="m62a0cca3aa" d="M -4.743416 4.743416 
L 4.743416 4.743416 
L 4.743416 -4.743416 
L -4.743416 -4.743416 
z
" style="stroke: #000000; stroke-width: 0.8"/>
    </defs>
    <g clip-path="url(#p386e2273d7)">
     <use xlink:href="#m62a0cca3aa" x="351.36913" y="358.295022" style="fill: #ef6676; stroke: #000000; stroke-width: 0.8"/>
     <use xlink:href="#m62a0cca3aa" x="359.393294" y="435.705105" style="fill: #ef6676; stroke: #000000; stroke-width: 0.8"/>
    </g>
   </g>
   <g id="patch_10">
    <path d="M 359.134376 357.231042 
Q 356.243263 357.627177 353.352149 358.023312 
" style="fill: none; stroke: #999999; stroke-width: 0.6; stroke-linecap: round"/>
   </g>
   <g id="text_22">
    <!-- Seocho PM10-&gt;PM25 -->
    <g transform="translate(361.36913 353.295022) scale(0.08 -0.08)">
     <defs>
      <path id="DejaVuSans-35" d="M 691 4666 
L 3169 4666 
L 3169 4134 
L 1269 4134 
L 1269 2991 
Q 1406 3038 1543 3061 
Q 1681 3084 1819 3084 
Q 2600 3084 3056 2656 
Q 3513 2228 3513 1497 
Q 3513 744 3044 326 
Q 2575 -91 1722 -91 
Q 1428 -91 1123 -41 
Q 819 9 494 109 
L 494 744 
Q 775 591 1075 516 
Q 1375 441 1709 441 
Q 2250 441 2565 725 
Q 2881 1009 2881 1497 
Q 2881 1984 2565 2268 
Q 2250 2553 1709 2553 
Q 1456 2553 1204 2497 
Q 953 2441 691 2322 
L 691 4666 
z
" transform="scale(0.015625)"/>
     </defs>
     <use xlink:href="#DejaVuSans-53"/>
     <use xlink:href="#DejaVuSans-65" transform="translate(63.476562 0)"/>
     <use xlink:href="#DejaVuSans-6f" transform="translate(125 0)"/>
     <use xlink:href="#DejaVuSans-63" transform="translate(186.181641 0)"/>
     <use xlink:href="#DejaVuSans-68" transform="translate(241.162109 0)"/>
     <use xlink:href="#DejaVuSans-6f" transform="translate(304.541016 0)"/>
     <use xlink:href="#DejaVuSans-20" transform="translate(365.722656 0)"/>
     <use xlink:href="#DejaVuSans-50" transform="translate(397.509766 0)"/>
     <use xlink:href="#DejaVuSans-4d" transform="translate(457.8125 0)"/>
     <use xlink:href="#DejaVuSans-31" transform="translate(544.091797 0)"/>
     <use xlink:href="#DejaVuSans-30" transform="translate(607.714844 0)"/>
     <use xlink:href="#DejaVuSans-2d" transform="translate(671.337891 0)"/>
     <use xlink:href="#DejaVuSans-3e" transform="translate(707.421875 0)"/>
     <use xlink:href="#DejaVuSans-50" transform="translate(791.210938 0)"/>
     <use xlink:href="#DejaVuSans-4d" transform="translate(851.513672 0)"/>
     <use xlink:href="#DejaVuSans-32" transform="translate(937.792969 0)"/>
     <use xlink:href="#DejaVuSans-35" transform="translate(1001.416016 0)"/>
    </g>
   </g>
   <g id="patch_11">
    <path d="M 365.397026 436.004551 
Q 363.393339 435.904613 361.389652 435.804676 
" style="fill: none; stroke: #999999; stroke-width: 0.6; stroke-linecap: round"/>
   </g>
   <g id="text_23">
    <!-- Gangbuk PM10-&gt;PM25 -->
    <g transform="translate(369.393294 440.705105) scale(0.08 -0.08)">
     <use xlink:href="#DejaVuSans-47"/>
     <use xlink:href="#DejaVuSans-61" transform="translate(77.490234 0)"/>
     <use xlink:href="#DejaVuSans-6e" transform="translate(138.769531 0)"/>
     <use xlink:href="#DejaVuSans-67" transform="translate(202.148438 0)"/>
     <use xlink:href="#DejaVuSans-62" transform="translate(265.625 0)"/>
     <use xlink:href="#DejaVuSans-75" transform="translate(329.101562 0)"/>
     <use xlink:href="#DejaVuSans-6b" transform="translate(392.480469 0)"/>
     <use xlink:href="#DejaVuSans-20" transform="translate(450.390625 0)"/>
     <use xlink:href="#DejaVuSans-50" transform="translate(482.177734 0)"/>
     <use xlink:href="#DejaVuSans-4d" transform="translate(542.480469 0)"/>
     <use xlink:href="#DejaVuSans-31" transform="translate(628.759766 0)"/>
     <use xlink:href="#DejaVuSans-30" transform="translate(692.382812 0)"/>
     <use xlink:href="#DejaVuSans-2d" transform="translate(756.005859 0)"/>
     <use xlink:href="#DejaVuSans-3e" transform="translate(792.089844 0)"/>
     <use xlink:href="#DejaVuSans-50" transform="translate(875.878906 0)"/>
     <use xlink:href="#DejaVuSans-4d" transform="translate(936.181641 0)"/>
     <use xlink:href="#DejaVuSans-32" transform="translate(1022.460938 0)"/>
     <use xlink:href="#DejaVuSans-35" transform="translate(1086.083984 0)"/>
    </g>
   </g>
   <g id="text_24">
    <!-- Lag-1 directed pollutant edges: PCMCI+ versus LPCMCI -->
    <g transform="translate(147.568281 15.558281) scale(0.11 -0.11)">
     <defs>
      <path id="DejaVuSans-64" d="M 2906 2969 
L 2906 4863 
L 3481 4863 
L 3481 0 
L 2906 0 
L 2906 525 
Q 2725 213 2448 61 
Q 2172 -91 1784 -91 
Q 1150 -91 751 415 
Q 353 922 353 1747 
Q 353 2572 751 3078 
Q 1150 3584 1784 3584 
Q 2172 3584 2448 3432 
Q 2725 3281 2906 2969 
z
M 947 1747 
Q 947 1113 1208 752 
Q 1469 391 1925 391 
Q 2381 391 2643 752 
Q 2906 1113 2906 1747 
Q 2906 2381 2643 2742 
Q 2381 3103 1925 3103 
Q 1469 3103 1208 2742 
Q 947 2381 947 1747 
z
" transform="scale(0.015625)"/>
      <path id="DejaVuSans-72" d="M 2631 2963 
Q 2534 3019 2420 3045 
Q 2306 3072 2169 3072 
Q 1681 3072 1420 2755 
Q 1159 2438 1159 1844 
L 1159 0 
L 581 0 
L 581 3500 
L 1159 3500 
L 1159 2956 
Q 1341 3275 1631 3429 
Q 1922 3584 2338 3584 
Q 2397 3584 2469 3576 
Q 2541 3569 2628 3553 
L 2631 2963 
z
" transform="scale(0.015625)"/>
      <path id="DejaVuSans-70" d="M 1159 525 
L 1159 -1331 
L 581 -1331 
L 581 3500 
L 1159 3500 
L 1159 2969 
Q 1341 3281 1617 3432 
Q 1894 3584 2278 3584 
Q 2916 3584 3314 3078 
Q 3713 2572 3713 1747 
Q 3713 922 3314 415 
Q 2916 -91 2278 -91 
Q 1894 -91 1617 61 
Q 1341 213 1159 525 
z
M 3116 1747 
Q 3116 2381 2855 2742 
Q 2594 3103 2138 3103 
Q 1681 3103 1420 2742 
Q 1159 2381 1159 1747 
Q 1159 1113 1420 752 
Q 1681 391 2138 391 
Q 2594 391 2855 752 
Q 3116 1113 3116 1747 
z
" transform="scale(0.015625)"/>
      <path id="DejaVuSans-73" d="M 2834 3397 
L 2834 2853 
Q 2591 2978 2328 3040 
Q 2066 3103 1784 3103 
Q 1356 3103 1142 2972 
Q 928 2841 928 2578 
Q 928 2378 1081 2264 
Q 1234 2150 1697 2047 
L 1894 2003 
Q 2506 1872 2764 1633 
Q 3022 1394 3022 966 
Q 3022 478 2636 193 
Q 2250 -91 1575 -91 
Q 1294 -91 989 -36 
Q 684 19 347 128 
L 347 722 
Q 666 556 975 473 
Q 1284 391 1588 391 
Q 1994 391 2212 530 
Q 2431 669 2431 922 
Q 2431 1156 2273 1281 
Q 2116 1406 1581 1522 
L 1381 1569 
Q 847 1681 609 1914 
Q 372 2147 372 2553 
Q 372 3047 722 3315 
Q 1072 3584 1716 3584 
Q 2034 3584 2315 3537 
Q 2597 3491 2834 3397 
z
" transform="scale(0.015625)"/>
      <path id="DejaVuSans-3a" d="M 750 794 
L 1409 794 
L 1409 0 
L 750 0 
L 750 794 
z
M 750 3309 
L 1409 3309 
L 1409 2516 
L 750 2516 
L 750 3309 
z
" transform="scale(0.015625)"/>
      <path id="DejaVuSans-76" d="M 191 3500 
L 800 3500 
L 1894 563 
L 2988 3500 
L 3597 3500 
L 2284 0 
L 1503 0 
L 191 3500 
z
" transform="scale(0.015625)"/>
     </defs>
     <use xlink:href="#DejaVuSans-4c"/>
     <use xlink:href="#DejaVuSans-61" transform="translate(55.712891 0)"/>
     <use xlink:href="#DejaVuSans-67" transform="translate(116.992188 0)"/>
     <use xlink:href="#DejaVuSans-2d" transform="translate(180.46875 0)"/>
     <use xlink:href="#DejaVuSans-31" transform="translate(216.552734 0)"/>
     <use xlink:href="#DejaVuSans-20" transform="translate(280.175781 0)"/>
     <use xlink:href="#DejaVuSans-64" transform="translate(311.962891 0)"/>
     <use xlink:href="#DejaVuSans-69" transform="translate(375.439453 0)"/>
     <use xlink:href="#DejaVuSans-72" transform="translate(403.222656 0)"/>
     <use xlink:href="#DejaVuSans-65" transform="translate(442.085938 0)"/>
     <use xlink:href="#DejaVuSans-63" transform="translate(503.609375 0)"/>
     <use xlink:href="#DejaVuSans-74" transform="translate(558.589844 0)"/>
     <use xlink:href="#DejaVuSans-65" transform="translate(597.798828 0)"/>
     <use xlink:href="#DejaVuSans-64" transform="translate(659.322266 0)"/>
     <use xlink:href="#DejaVuSans-20" transform="translate(722.798828 0)"/>
     <use xlink:href="#DejaVuSans-70" transform="translate(754.585938 0)"/>
     <use xlink:href="#DejaVuSans-6f" transform="translate(818.0625 0)"/>
     <use xlink:href="#DejaVuSans-6c" transform="translate(879.244141 0)"/>
     <use xlink:href="#DejaVuSans-6c" transform="translate(907.027344 0)"/>
     <use xlink:href="#DejaVuSans-75" transform="translate(934.810547 0)"/>
     <use xlink:href="#DejaVuSans-74" transform="translate(998.189453 0)"/>
     <use xlink:href="#DejaVuSans-61" transform="translate(1037.398438 0)"/>
     <use xlink:href="#DejaVuSans-6e" transform="translate(1098.677734 0)"/>
     <use xlink:href="#DejaVuSans-74" transform="translate(1162.056641 0)"/>
     <use xlink:href="#DejaVuSans-20" transform="translate(1201.265625 0)"/>
     <use xlink:href="#DejaVuSans-65" transform="translate(1233.052734 0)"/>
     <use xlink:href="#DejaVuSans-64" transform="translate(1294.576172 0)"/>
     <use xlink:href="#DejaVuSans-67" transform="translate(1358.052734 0)"/>
     <use xlink:href="#DejaVuSans-65" transform="translate(1421.529297 0)"/>
     <use xlink:href="#DejaVuSans-73" transform="translate(1483.052734 0)"/>
     <use xlink:href="#DejaVuSans-3a" transform="translate(1535.152344 0)"/>
     <use xlink:href="#DejaVuSans-20" transform="translate(1568.84375 0)"/>
     <use xlink:href="#DejaVuSans-50" transform="translate(1600.630859 0)"/>
     <use xlink:href="#DejaVuSans-43" transform="translate(1660.933594 0)"/>
     <use xlink:href="#DejaVuSans-4d" transform="translate(1730.757812 0)"/>
     <use xlink:href="#DejaVuSans-43" transform="translate(1817.037109 0)"/>
     <use xlink:href="#DejaVuSans-49" transform="translate(1886.861328 0)"/>
     <use xlink:href="#DejaVuSans-2b" transform="translate(1916.353516 0)"/>
     <use xlink:href="#DejaVuSans-20" transform="translate(2000.142578 0)"/>
     <use xlink:href="#DejaVuSans-76" transform="translate(2031.929688 0)"/>
     <use xlink:href="#DejaVuSans-65" transform="translate(2091.109375 0)"/>
     <use xlink:href="#DejaVuSans-72" transform="translate(2152.632812 0)"/>
     <use xlink:href="#DejaVuSans-73" transform="translate(2193.746094 0)"/>
     <use xlink:href="#DejaVuSans-75" transform="translate(2245.845703 0)"/>
     <use xlink:href="#DejaVuSans-73" transform="translate(2309.224609 0)"/>
     <use xlink:href="#DejaVuSans-20" transform="translate(2361.324219 0)"/>
     <use xlink:href="#DejaVuSans-4c" transform="translate(2393.111328 0)"/>
     <use xlink:href="#DejaVuSans-50" transform="translate(2448.824219 0)"/>
     <use xlink:href="#DejaVuSans-43" transform="translate(2509.126953 0)"/>
     <use xlink:href="#DejaVuSans-4d" transform="translate(2578.951172 0)"/>
     <use xlink:href="#DejaVuSans-43" transform="translate(2665.230469 0)"/>
     <use xlink:href="#DejaVuSans-49" transform="translate(2735.054688 0)"/>
    </g>
    <!-- Three representative stations; off-diagonal values indicate algorithm dependence -->
    <g transform="translate(74.911563 27.875875) scale(0.11 -0.11)">
     <defs>
      <path id="DejaVuSans-54" d="M -19 4666 
L 3928 4666 
L 3928 4134 
L 2272 4134 
L 2272 0 
L 1638 0 
L 1638 4134 
L -19 4134 
L -19 4666 
z
" transform="scale(0.015625)"/>
      <path id="DejaVuSans-3b" d="M 750 3309 
L 1409 3309 
L 1409 2516 
L 750 2516 
L 750 3309 
z
M 750 794 
L 1409 794 
L 1409 256 
L 897 -744 
L 494 -744 
L 750 256 
L 750 794 
z
" transform="scale(0.015625)"/>
     </defs>
     <use xlink:href="#DejaVuSans-54"/>
     <use xlink:href="#DejaVuSans-68" transform="translate(61.083984 0)"/>
     <use xlink:href="#DejaVuSans-72" transform="translate(124.462891 0)"/>
     <use xlink:href="#DejaVuSans-65" transform="translate(163.326172 0)"/>
     <use xlink:href="#DejaVuSans-65" transform="translate(224.849609 0)"/>
     <use xlink:href="#DejaVuSans-20" transform="translate(286.373047 0)"/>
     <use xlink:href="#DejaVuSans-72" transform="translate(318.160156 0)"/>
     <use xlink:href="#DejaVuSans-65" transform="translate(357.023438 0)"/>
     <use xlink:href="#DejaVuSans-70" transform="translate(418.546875 0)"/>
     <use xlink:href="#DejaVuSans-72" transform="translate(482.023438 0)"/>
     <use xlink:href="#DejaVuSans-65" transform="translate(520.886719 0)"/>
     <use xlink:href="#DejaVuSans-73" transform="translate(582.410156 0)"/>
     <use xlink:href="#DejaVuSans-65" transform="translate(634.509766 0)"/>
     <use xlink:href="#DejaVuSans-6e" transform="translate(696.033203 0)"/>
     <use xlink:href="#DejaVuSans-74" transform="translate(759.412109 0)"/>
     <use xlink:href="#DejaVuSans-61" transform="translate(798.621094 0)"/>
     <use xlink:href="#DejaVuSans-74" transform="translate(859.900391 0)"/>
     <use xlink:href="#DejaVuSans-69" transform="translate(899.109375 0)"/>
     <use xlink:href="#DejaVuSans-76" transform="translate(926.892578 0)"/>
     <use xlink:href="#DejaVuSans-65" transform="translate(986.072266 0)"/>
     <use xlink:href="#DejaVuSans-20" transform="translate(1047.595703 0)"/>
     <use xlink:href="#DejaVuSans-73" transform="translate(1079.382812 0)"/>
     <use xlink:href="#DejaVuSans-74" transform="translate(1131.482422 0)"/>
     <use xlink:href="#DejaVuSans-61" transform="translate(1170.691406 0)"/>
     <use xlink:href="#DejaVuSans-74" transform="translate(1231.970703 0)"/>
     <use xlink:href="#DejaVuSans-69" transform="translate(1271.179688 0)"/>
     <use xlink:href="#DejaVuSans-6f" transform="translate(1298.962891 0)"/>
     <use xlink:href="#DejaVuSans-6e" transform="translate(1360.144531 0)"/>
     <use xlink:href="#DejaVuSans-73" transform="translate(1423.523438 0)"/>
     <use xlink:href="#DejaVuSans-3b" transform="translate(1475.623047 0)"/>
     <use xlink:href="#DejaVuSans-20" transform="translate(1509.314453 0)"/>
     <use xlink:href="#DejaVuSans-6f" transform="translate(1541.101562 0)"/>
     <use xlink:href="#DejaVuSans-66" transform="translate(1602.283203 0)"/>
     <use xlink:href="#DejaVuSans-66" transform="translate(1637.488281 0)"/>
     <use xlink:href="#DejaVuSans-2d" transform="translate(1667.193359 0)"/>
     <use xlink:href="#DejaVuSans-64" transform="translate(1703.277344 0)"/>
     <use xlink:href="#DejaVuSans-69" transform="translate(1766.753906 0)"/>
     <use xlink:href="#DejaVuSans-61" transform="translate(1794.537109 0)"/>
     <use xlink:href="#DejaVuSans-67" transform="translate(1855.816406 0)"/>
     <use xlink:href="#DejaVuSans-6f" transform="translate(1919.292969 0)"/>
     <use xlink:href="#DejaVuSans-6e" transform="translate(1980.474609 0)"/>
     <use xlink:href="#DejaVuSans-61" transform="translate(2043.853516 0)"/>
     <use xlink:href="#DejaVuSans-6c" transform="translate(2105.132812 0)"/>
     <use xlink:href="#DejaVuSans-20" transform="translate(2132.916016 0)"/>
     <use xlink:href="#DejaVuSans-76" transform="translate(2164.703125 0)"/>
     <use xlink:href="#DejaVuSans-61" transform="translate(2223.882812 0)"/>
     <use xlink:href="#DejaVuSans-6c" transform="translate(2285.162109 0)"/>
     <use xlink:href="#DejaVuSans-75" transform="translate(2312.945312 0)"/>
     <use xlink:href="#DejaVuSans-65" transform="translate(2376.324219 0)"/>
     <use xlink:href="#DejaVuSans-73" transform="translate(2437.847656 0)"/>
     <use xlink:href="#DejaVuSans-20" transform="translate(2489.947266 0)"/>
     <use xlink:href="#DejaVuSans-69" transform="translate(2521.734375 0)"/>
     <use xlink:href="#DejaVuSans-6e" transform="translate(2549.517578 0)"/>
     <use xlink:href="#DejaVuSans-64" transform="translate(2612.896484 0)"/>
     <use xlink:href="#DejaVuSans-69" transform="translate(2676.373047 0)"/>
     <use xlink:href="#DejaVuSans-63" transform="translate(2704.15625 0)"/>
     <use xlink:href="#DejaVuSans-61" transform="translate(2759.136719 0)"/>
     <use xlink:href="#DejaVuSans-74" transform="translate(2820.416016 0)"/>
     <use xlink:href="#DejaVuSans-65" transform="translate(2859.625 0)"/>
     <use xlink:href="#DejaVuSans-20" transform="translate(2921.148438 0)"/>
     <use xlink:href="#DejaVuSans-61" transform="translate(2952.935547 0)"/>
     <use xlink:href="#DejaVuSans-6c" transform="translate(3014.214844 0)"/>
     <use xlink:href="#DejaVuSans-67" transform="translate(3041.998047 0)"/>
     <use xlink:href="#DejaVuSans-6f" transform="translate(3105.474609 0)"/>
     <use xlink:href="#DejaVuSans-72" transform="translate(3166.65625 0)"/>
     <use xlink:href="#DejaVuSans-69" transform="translate(3207.769531 0)"/>
     <use xlink:href="#DejaVuSans-74" transform="translate(3235.552734 0)"/>
     <use xlink:href="#DejaVuSans-68" transform="translate(3274.761719 0)"/>
     <use xlink:href="#DejaVuSans-6d" transform="translate(3338.140625 0)"/>
     <use xlink:href="#DejaVuSans-20" transform="translate(3435.552734 0)"/>
     <use xlink:href="#DejaVuSans-64" transform="translate(3467.339844 0)"/>
     <use xlink:href="#DejaVuSans-65" transform="translate(3530.816406 0)"/>
     <use xlink:href="#DejaVuSans-70" transform="translate(3592.339844 0)"/>
     <use xlink:href="#DejaVuSans-65" transform="translate(3655.816406 0)"/>
     <use xlink:href="#DejaVuSans-6e" transform="translate(3717.339844 0)"/>
     <use xlink:href="#DejaVuSans-64" transform="translate(3780.71875 0)"/>
     <use xlink:href="#DejaVuSans-65" transform="translate(3844.195312 0)"/>
     <use xlink:href="#DejaVuSans-6e" transform="translate(3905.71875 0)"/>
     <use xlink:href="#DejaVuSans-63" transform="translate(3969.097656 0)"/>
     <use xlink:href="#DejaVuSans-65" transform="translate(4024.078125 0)"/>
    </g>
   </g>
   <g id="legend_1">
    <g id="line2d_32">
     <path d="M 369.727813 470.181812 
L 379.727813 470.181812 
L 389.727813 470.181812 
" style="fill: none; stroke-dasharray: 3.7,1.6; stroke-dashoffset: 0; stroke: #888888"/>
    </g>
    <g id="text_25">
     <!-- y = x -->
     <g transform="translate(397.727813 473.681812) scale(0.1 -0.1)">
      <defs>
       <path id="DejaVuSans-79" d="M 2059 -325 
Q 1816 -950 1584 -1140 
Q 1353 -1331 966 -1331 
L 506 -1331 
L 506 -850 
L 844 -850 
Q 1081 -850 1212 -737 
Q 1344 -625 1503 -206 
L 1606 56 
L 191 3500 
L 800 3500 
L 1894 763 
L 2988 3500 
L 3597 3500 
L 2059 -325 
z
" transform="scale(0.015625)"/>
       <path id="DejaVuSans-3d" d="M 678 2906 
L 4684 2906 
L 4684 2381 
L 678 2381 
L 678 2906 
z
M 678 1631 
L 4684 1631 
L 4684 1100 
L 678 1100 
L 678 1631 
z
" transform="scale(0.015625)"/>
       <path id="DejaVuSans-78" d="M 3513 3500 
L 2247 1797 
L 3578 0 
L 2900 0 
L 1881 1375 
L 863 0 
L 184 0 
L 1544 1831 
L 300 3500 
L 978 3500 
L 1906 2253 
L 2834 3500 
L 3513 3500 
z
" transform="scale(0.015625)"/>
      </defs>
      <use xlink:href="#DejaVuSans-79"/>
      <use xlink:href="#DejaVuSans-20" transform="translate(59.179688 0)"/>
      <use xlink:href="#DejaVuSans-3d" transform="translate(90.966797 0)"/>
      <use xlink:href="#DejaVuSans-20" transform="translate(174.755859 0)"/>
      <use xlink:href="#DejaVuSans-78" transform="translate(206.542969 0)"/>
     </g>
    </g>
    <g id="PathCollection_4">
     <g>
      <use xlink:href="#m69256798ce" x="379.727813" y="485.734938" style="fill: #e34a14; stroke: #000000; stroke-width: 0.8"/>
     </g>
    </g>
    <g id="text_26">
     <!-- LPCMCI-dominant shadow -->
     <g transform="translate(397.727813 488.359938) scale(0.1 -0.1)">
      <defs>
       <path id="DejaVuSans-77" d="M 269 3500 
L 844 3500 
L 1563 769 
L 2278 3500 
L 2956 3500 
L 3675 769 
L 4391 3500 
L 4966 3500 
L 4050 0 
L 3372 0 
L 2619 2869 
L 1863 0 
L 1184 0 
L 269 3500 
z
" transform="scale(0.015625)"/>
      </defs>
      <use xlink:href="#DejaVuSans-4c"/>
      <use xlink:href="#DejaVuSans-50" transform="translate(55.712891 0)"/>
      <use xlink:href="#DejaVuSans-43" transform="translate(116.015625 0)"/>
      <use xlink:href="#DejaVuSans-4d" transform="translate(185.839844 0)"/>
      <use xlink:href="#DejaVuSans-43" transform="translate(272.119141 0)"/>
      <use xlink:href="#DejaVuSans-49" transform="translate(341.943359 0)"/>
      <use xlink:href="#DejaVuSans-2d" transform="translate(371.435547 0)"/>
      <use xlink:href="#DejaVuSans-64" transform="translate(407.519531 0)"/>
      <use xlink:href="#DejaVuSans-6f" transform="translate(470.996094 0)"/>
      <use xlink:href="#DejaVuSans-6d" transform="translate(532.177734 0)"/>
      <use xlink:href="#DejaVuSans-69" transform="translate(629.589844 0)"/>
      <use xlink:href="#DejaVuSans-6e" transform="translate(657.373047 0)"/>
      <use xlink:href="#DejaVuSans-61" transform="translate(720.751953 0)"/>
      <use xlink:href="#DejaVuSans-6e" transform="translate(782.03125 0)"/>
      <use xlink:href="#DejaVuSans-74" transform="translate(845.410156 0)"/>
      <use xlink:href="#DejaVuSans-20" transform="translate(884.619141 0)"/>
      <use xlink:href="#DejaVuSans-73" transform="translate(916.40625 0)"/>
      <use xlink:href="#DejaVuSans-68" transform="translate(968.505859 0)"/>
      <use xlink:href="#DejaVuSans-61" transform="translate(1031.884766 0)"/>
      <use xlink:href="#DejaVuSans-64" transform="translate(1093.164062 0)"/>
      <use xlink:href="#DejaVuSans-6f" transform="translate(1156.640625 0)"/>
      <use xlink:href="#DejaVuSans-77" transform="translate(1217.822266 0)"/>
     </g>
    </g>
    <g id="PathCollection_5">
     <g>
      <use xlink:href="#m3fcf4e688c" x="379.727813" y="500.413063" style="fill: #377eb8; stroke: #ffffff; stroke-width: 0.8"/>
     </g>
    </g>
    <g id="text_27">
     <!-- concordant/weakly different -->
     <g transform="translate(397.727813 503.038063) scale(0.1 -0.1)">
      <defs>
       <path id="DejaVuSans-2f" d="M 1625 4666 
L 2156 4666 
L 531 -594 
L 0 -594 
L 1625 4666 
z
" transform="scale(0.015625)"/>
      </defs>
      <use xlink:href="#DejaVuSans-63"/>
      <use xlink:href="#DejaVuSans-6f" transform="translate(54.980469 0)"/>
      <use xlink:href="#DejaVuSans-6e" transform="translate(116.162109 0)"/>
      <use xlink:href="#DejaVuSans-63" transform="translate(179.541016 0)"/>
      <use xlink:href="#DejaVuSans-6f" transform="translate(234.521484 0)"/>
      <use xlink:href="#DejaVuSans-72" transform="translate(295.703125 0)"/>
      <use xlink:href="#DejaVuSans-64" transform="translate(335.066406 0)"/>
      <use xlink:href="#DejaVuSans-61" transform="translate(398.542969 0)"/>
      <use xlink:href="#DejaVuSans-6e" transform="translate(459.822266 0)"/>
      <use xlink:href="#DejaVuSans-74" transform="translate(523.201172 0)"/>
      <use xlink:href="#DejaVuSans-2f" transform="translate(562.410156 0)"/>
      <use xlink:href="#DejaVuSans-77" transform="translate(596.101562 0)"/>
      <use xlink:href="#DejaVuSans-65" transform="translate(677.888672 0)"/>
      <use xlink:href="#DejaVuSans-61" transform="translate(739.412109 0)"/>
      <use xlink:href="#DejaVuSans-6b" transform="translate(800.691406 0)"/>
      <use xlink:href="#DejaVuSans-6c" transform="translate(858.601562 0)"/>
      <use xlink:href="#DejaVuSans-79" transform="translate(886.384766 0)"/>
      <use xlink:href="#DejaVuSans-20" transform="translate(945.564453 0)"/>
      <use xlink:href="#DejaVuSans-64" transform="translate(977.351562 0)"/>
      <use xlink:href="#DejaVuSans-69" transform="translate(1040.828125 0)"/>
      <use xlink:href="#DejaVuSans-66" transform="translate(1068.611328 0)"/>
      <use xlink:href="#DejaVuSans-66" transform="translate(1103.816406 0)"/>
      <use xlink:href="#DejaVuSans-65" transform="translate(1139.021484 0)"/>
      <use xlink:href="#DejaVuSans-72" transform="translate(1200.544922 0)"/>
      <use xlink:href="#DejaVuSans-65" transform="translate(1239.408203 0)"/>
      <use xlink:href="#DejaVuSans-6e" transform="translate(1300.931641 0)"/>
      <use xlink:href="#DejaVuSans-74" transform="translate(1364.310547 0)"/>
     </g>
    </g>
    <g id="PathCollection_6">
     <g>
      <use xlink:href="#m62a0cca3aa" x="379.727813" y="515.091188" style="fill: #ef6676; stroke: #000000; stroke-width: 0.8"/>
     </g>
    </g>
    <g id="text_28">
     <!-- sign reversal -->
     <g transform="translate(397.727813 517.716188) scale(0.1 -0.1)">
      <use xlink:href="#DejaVuSans-73"/>
      <use xlink:href="#DejaVuSans-69" transform="translate(52.099609 0)"/>
      <use xlink:href="#DejaVuSans-67" transform="translate(79.882812 0)"/>
      <use xlink:href="#DejaVuSans-6e" transform="translate(143.359375 0)"/>
      <use xlink:href="#DejaVuSans-20" transform="translate(206.738281 0)"/>
      <use xlink:href="#DejaVuSans-72" transform="translate(238.525391 0)"/>
      <use xlink:href="#DejaVuSans-65" transform="translate(277.388672 0)"/>
      <use xlink:href="#DejaVuSans-76" transform="translate(338.912109 0)"/>
      <use xlink:href="#DejaVuSans-65" transform="translate(398.091797 0)"/>
      <use xlink:href="#DejaVuSans-72" transform="translate(459.615234 0)"/>
      <use xlink:href="#DejaVuSans-73" transform="translate(500.728516 0)"/>
      <use xlink:href="#DejaVuSans-61" transform="translate(552.828125 0)"/>
      <use xlink:href="#DejaVuSans-6c" transform="translate(614.107422 0)"/>
     </g>
    </g>
   </g>
  </g>
 </g>
 <defs>
  <clipPath id="p386e2273d7">
   <rect x="52.160938" y="33.875875" width="494.92" height="494.92"/>
  </clipPath>
 </defs>
</svg>
